<?xml version="1.0" encoding="utf-8" standalone="no"?>
<!DOCTYPE svg PUBLIC "-//W3C//DTD SVG 1.1//EN"
  "http://www.w3.org/Graphics/SVG/1.1/DTD/svg11.dtd">
<svg xmlns:xlink="http://www.w3.org/1999/xlink" width="852.314375pt" height="452.72625pt" viewBox="0 0 852.314375 452.72625" xmlns="http://www.w3.org/2000/svg" version="1.1">
 <metadata>
  <rdf:RDF xmlns:dc="http://purl.org/dc/elements/1.1/" xmlns:cc="http://creativecommons.org/ns#" xmlns:rdf="http://www.w3.org/1999/02/22-rdf-syntax-ns#">
   <cc:Work>
    <dc:type rdf:resource="http://purl.org/dc/dcmitype/StillImage"/>
    <dc:date>2024-09-09T16:18:49.907073</dc:date>
    <dc:format>image/svg+xml</dc:format>
    <dc:creator>
     <cc:Agent>
      <dc:title>Matplotlib v3.8.2, https://matplotlib.org/</dc:title>
     </cc:Agent>
    </dc:creator>
   </cc:Work>
  </rdf:RDF>
 </metadata>
 <defs>
  <style type="text/css">*{stroke-linejoin: round; stroke-linecap: butt}</style>
 </defs>
 <g id="figure_1">
  <g id="patch_1">
   <path d="M 0 452.72625 
L 852.314375 452.72625 
L 852.314375 0 
L 0 0 
z
" style="fill: #ffffff"/>
  </g>
  <g id="axes_1">
   <g id="patch_2">
    <path d="M 93.018125 401.05625 
L 271.322187 401.05625 
L 271.322187 70.88 
L 93.018125 70.88 
z
" style="fill: #eaeaf2"/>
   </g>
   <g id="matplotlib.axis_1">
    <g id="xtick_1">
     <g id="line2d_1">
      <path d="M 93.018125 401.05625 
L 93.018125 70.88 
" clip-path="url(#p2431ddeef8)" style="fill: none; stroke: #ffffff; stroke-linecap: round"/>
     </g>
    </g>
    <g id="xtick_2">
     <g id="line2d_2">
      <path d="M 137.594141 401.05625 
L 137.594141 70.88 
" clip-path="url(#p2431ddeef8)" style="fill: none; stroke: #ffffff; stroke-linecap: round"/>
     </g>
    </g>
    <g id="xtick_3">
     <g id="line2d_3">
      <path d="M 182.170156 401.05625 
L 182.170156 70.88 
" clip-path="url(#p2431ddeef8)" style="fill: none; stroke: #ffffff; stroke-linecap: round"/>
     </g>
    </g>
    <g id="xtick_4">
     <g id="line2d_4">
      <path d="M 226.746172 401.05625 
L 226.746172 70.88 
" clip-path="url(#p2431ddeef8)" style="fill: none; stroke: #ffffff; stroke-linecap: round"/>
     </g>
    </g>
    <g id="xtick_5">
     <g id="line2d_5">
      <path d="M 271.322187 401.05625 
L 271.322187 70.88 
" clip-path="url(#p2431ddeef8)" style="fill: none; stroke: #ffffff; stroke-linecap: round"/>
     </g>
    </g>
    <g id="text_1">
     <!-- case: A -->
     <g style="fill: #262626" transform="translate(123.960156 438.87125) scale(0.32 -0.32)">
      <defs>
       <path id="DejaVuSerif-63" d="M 3291 997 
Q 3169 466 2822 187 
Q 2475 -91 1925 -91 
Q 1200 -91 759 389 
Q 319 869 319 1663 
Q 319 2459 759 2936 
Q 1200 3413 1925 3413 
Q 2241 3413 2553 3339 
Q 2866 3266 3181 3116 
L 3181 2266 
L 2847 2266 
Q 2781 2703 2561 2903 
Q 2341 3103 1931 3103 
Q 1466 3103 1228 2742 
Q 991 2381 991 1663 
Q 991 944 1227 581 
Q 1463 219 1931 219 
Q 2303 219 2525 412 
Q 2747 606 2828 997 
L 3291 997 
z
" transform="scale(0.015625)"/>
       <path id="DejaVuSerif-61" d="M 2547 1044 
L 2547 1747 
L 1806 1747 
Q 1378 1747 1168 1562 
Q 959 1378 959 997 
Q 959 650 1171 447 
Q 1384 244 1747 244 
Q 2106 244 2326 466 
Q 2547 688 2547 1044 
z
M 3122 2075 
L 3122 331 
L 3634 331 
L 3634 0 
L 2547 0 
L 2547 359 
Q 2356 128 2106 18 
Q 1856 -91 1522 -91 
Q 969 -91 644 203 
Q 319 497 319 997 
Q 319 1513 691 1797 
Q 1063 2081 1741 2081 
L 2547 2081 
L 2547 2309 
Q 2547 2688 2317 2895 
Q 2088 3103 1672 3103 
Q 1328 3103 1125 2947 
Q 922 2791 872 2484 
L 575 2484 
L 575 3156 
Q 875 3284 1158 3348 
Q 1441 3413 1709 3413 
Q 2400 3413 2761 3070 
Q 3122 2728 3122 2075 
z
" transform="scale(0.015625)"/>
       <path id="DejaVuSerif-73" d="M 359 184 
L 359 959 
L 691 959 
Q 703 588 923 403 
Q 1144 219 1575 219 
Q 1963 219 2166 364 
Q 2369 509 2369 788 
Q 2369 1006 2220 1140 
Q 2072 1275 1594 1428 
L 1178 1569 
Q 750 1706 558 1912 
Q 366 2119 366 2438 
Q 366 2894 700 3153 
Q 1034 3413 1625 3413 
Q 1888 3413 2178 3344 
Q 2469 3275 2778 3144 
L 2778 2419 
L 2447 2419 
Q 2434 2741 2221 2922 
Q 2009 3103 1644 3103 
Q 1281 3103 1095 2975 
Q 909 2847 909 2591 
Q 909 2381 1050 2254 
Q 1191 2128 1613 1997 
L 2069 1856 
Q 2541 1709 2748 1489 
Q 2956 1269 2956 922 
Q 2956 450 2595 179 
Q 2234 -91 1600 -91 
Q 1278 -91 972 -22 
Q 666 47 359 184 
z
" transform="scale(0.015625)"/>
       <path id="DejaVuSerif-65" d="M 3469 1600 
L 991 1600 
L 991 1575 
Q 991 903 1244 561 
Q 1497 219 1991 219 
Q 2369 219 2611 417 
Q 2853 616 2950 1006 
L 3413 1006 
Q 3275 459 2904 184 
Q 2534 -91 1931 -91 
Q 1203 -91 761 389 
Q 319 869 319 1663 
Q 319 2450 753 2931 
Q 1188 3413 1894 3413 
Q 2647 3413 3050 2948 
Q 3453 2484 3469 1600 
z
M 2791 1931 
Q 2772 2513 2545 2808 
Q 2319 3103 1894 3103 
Q 1497 3103 1269 2806 
Q 1041 2509 991 1931 
L 2791 1931 
z
" transform="scale(0.015625)"/>
       <path id="DejaVuSerif-3a" d="M 666 325 
Q 666 500 786 622 
Q 906 744 1081 744 
Q 1256 744 1376 622 
Q 1497 500 1497 325 
Q 1497 150 1378 29 
Q 1259 -91 1081 -91 
Q 903 -91 784 29 
Q 666 150 666 325 
z
M 666 2363 
Q 666 2538 786 2658 
Q 906 2778 1081 2778 
Q 1259 2778 1378 2659 
Q 1497 2541 1497 2363 
Q 1497 2184 1378 2065 
Q 1259 1947 1081 1947 
Q 906 1947 786 2067 
Q 666 2188 666 2363 
z
" transform="scale(0.015625)"/>
       <path id="DejaVuSerif-20" transform="scale(0.015625)"/>
       <path id="DejaVuSerif-41" d="M 1281 1691 
L 2994 1691 
L 2138 3909 
L 1281 1691 
z
M -38 0 
L -38 331 
L 372 331 
L 2034 4666 
L 2559 4666 
L 4225 331 
L 4684 331 
L 4684 0 
L 2988 0 
L 2988 331 
L 3506 331 
L 3116 1356 
L 1153 1356 
L 763 331 
L 1275 331 
L 1275 0 
L -38 0 
z
" transform="scale(0.015625)"/>
      </defs>
      <use xlink:href="#DejaVuSerif-63"/>
      <use xlink:href="#DejaVuSerif-61" x="56.005859"/>
      <use xlink:href="#DejaVuSerif-73" x="115.625"/>
      <use xlink:href="#DejaVuSerif-65" x="166.943359"/>
      <use xlink:href="#DejaVuSerif-3a" x="226.123047"/>
      <use xlink:href="#DejaVuSerif-20" x="259.814453"/>
      <use xlink:href="#DejaVuSerif-41" x="291.601562"/>
     </g>
    </g>
   </g>
   <g id="matplotlib.axis_2">
    <g id="ytick_1">
     <g id="line2d_6">
      <path d="M 93.018125 401.05625 
L 271.322187 401.05625 
" clip-path="url(#p2431ddeef8)" style="fill: none; stroke: #ffffff; stroke-linecap: round"/>
     </g>
     <g id="text_2">
      <!-- 0.0 -->
      <g style="fill: #262626" transform="translate(42.17 410.934219) scale(0.26 -0.26)">
       <defs>
        <path id="DejaVuSerif-30" d="M 2034 219 
Q 2513 219 2750 744 
Q 2988 1269 2988 2328 
Q 2988 3391 2750 3916 
Q 2513 4441 2034 4441 
Q 1556 4441 1318 3916 
Q 1081 3391 1081 2328 
Q 1081 1269 1318 744 
Q 1556 219 2034 219 
z
M 2034 -91 
Q 1275 -91 848 546 
Q 422 1184 422 2328 
Q 422 3475 848 4112 
Q 1275 4750 2034 4750 
Q 2797 4750 3222 4112 
Q 3647 3475 3647 2328 
Q 3647 1184 3222 546 
Q 2797 -91 2034 -91 
z
" transform="scale(0.015625)"/>
        <path id="DejaVuSerif-2e" d="M 603 325 
Q 603 500 722 622 
Q 841 744 1019 744 
Q 1191 744 1312 622 
Q 1434 500 1434 325 
Q 1434 153 1312 31 
Q 1191 -91 1019 -91 
Q 841 -91 722 29 
Q 603 150 603 325 
z
" transform="scale(0.015625)"/>
       </defs>
       <use xlink:href="#DejaVuSerif-30"/>
       <use xlink:href="#DejaVuSerif-2e" x="63.623047"/>
       <use xlink:href="#DejaVuSerif-30" x="95.410156"/>
      </g>
     </g>
    </g>
    <g id="ytick_2">
     <g id="line2d_7">
      <path d="M 93.018125 335.021 
L 271.322187 335.021 
" clip-path="url(#p2431ddeef8)" style="fill: none; stroke: #ffffff; stroke-linecap: round"/>
     </g>
     <g id="text_3">
      <!-- 0.2 -->
      <g style="fill: #262626" transform="translate(42.17 344.898969) scale(0.26 -0.26)">
       <defs>
        <path id="DejaVuSerif-32" d="M 819 3553 
L 469 3553 
L 469 4384 
Q 803 4563 1142 4656 
Q 1481 4750 1806 4750 
Q 2534 4750 2956 4397 
Q 3378 4044 3378 3438 
Q 3378 2753 2422 1800 
Q 2347 1728 2309 1691 
L 1131 513 
L 3078 513 
L 3078 1088 
L 3444 1088 
L 3444 0 
L 434 0 
L 434 341 
L 1850 1753 
Q 2319 2222 2519 2614 
Q 2719 3006 2719 3438 
Q 2719 3909 2473 4175 
Q 2228 4441 1797 4441 
Q 1350 4441 1106 4219 
Q 863 3997 819 3553 
z
" transform="scale(0.015625)"/>
       </defs>
       <use xlink:href="#DejaVuSerif-30"/>
       <use xlink:href="#DejaVuSerif-2e" x="63.623047"/>
       <use xlink:href="#DejaVuSerif-32" x="95.410156"/>
      </g>
     </g>
    </g>
    <g id="ytick_3">
     <g id="line2d_8">
      <path d="M 93.018125 268.98575 
L 271.322187 268.98575 
" clip-path="url(#p2431ddeef8)" style="fill: none; stroke: #ffffff; stroke-linecap: round"/>
     </g>
     <g id="text_4">
      <!-- 0.4 -->
      <g style="fill: #262626" transform="translate(42.17 278.863719) scale(0.26 -0.26)">
       <defs>
        <path id="DejaVuSerif-34" d="M 2234 1581 
L 2234 4063 
L 641 1581 
L 2234 1581 
z
M 3609 0 
L 1484 0 
L 1484 331 
L 2234 331 
L 2234 1247 
L 197 1247 
L 197 1588 
L 2241 4750 
L 2859 4750 
L 2859 1581 
L 3750 1581 
L 3750 1247 
L 2859 1247 
L 2859 331 
L 3609 331 
L 3609 0 
z
" transform="scale(0.015625)"/>
       </defs>
       <use xlink:href="#DejaVuSerif-30"/>
       <use xlink:href="#DejaVuSerif-2e" x="63.623047"/>
       <use xlink:href="#DejaVuSerif-34" x="95.410156"/>
      </g>
     </g>
    </g>
    <g id="ytick_4">
     <g id="line2d_9">
      <path d="M 93.018125 202.9505 
L 271.322187 202.9505 
" clip-path="url(#p2431ddeef8)" style="fill: none; stroke: #ffffff; stroke-linecap: round"/>
     </g>
     <g id="text_5">
      <!-- 0.6 -->
      <g style="fill: #262626" transform="translate(42.17 212.828469) scale(0.26 -0.26)">
       <defs>
        <path id="DejaVuSerif-36" d="M 2094 219 
Q 2534 219 2771 542 
Q 3009 866 3009 1472 
Q 3009 2078 2771 2401 
Q 2534 2725 2094 2725 
Q 1647 2725 1412 2412 
Q 1178 2100 1178 1509 
Q 1178 888 1415 553 
Q 1653 219 2094 219 
z
M 1075 2569 
Q 1288 2803 1556 2918 
Q 1825 3034 2163 3034 
Q 2859 3034 3264 2615 
Q 3669 2197 3669 1472 
Q 3669 763 3233 336 
Q 2797 -91 2069 -91 
Q 1278 -91 853 498 
Q 428 1088 428 2181 
Q 428 3406 931 4078 
Q 1434 4750 2350 4750 
Q 2597 4750 2869 4703 
Q 3141 4656 3425 4563 
L 3425 3794 
L 3072 3794 
Q 3034 4109 2831 4275 
Q 2628 4441 2284 4441 
Q 1678 4441 1381 3981 
Q 1084 3522 1075 2569 
z
" transform="scale(0.015625)"/>
       </defs>
       <use xlink:href="#DejaVuSerif-30"/>
       <use xlink:href="#DejaVuSerif-2e" x="63.623047"/>
       <use xlink:href="#DejaVuSerif-36" x="95.410156"/>
      </g>
     </g>
    </g>
    <g id="ytick_5">
     <g id="line2d_10">
      <path d="M 93.018125 136.91525 
L 271.322187 136.91525 
" clip-path="url(#p2431ddeef8)" style="fill: none; stroke: #ffffff; stroke-linecap: round"/>
     </g>
     <g id="text_6">
      <!-- 0.8 -->
      <g style="fill: #262626" transform="translate(42.17 146.793219) scale(0.26 -0.26)">
       <defs>
        <path id="DejaVuSerif-38" d="M 2981 1275 
Q 2981 1775 2732 2051 
Q 2484 2328 2034 2328 
Q 1584 2328 1336 2051 
Q 1088 1775 1088 1275 
Q 1088 772 1336 495 
Q 1584 219 2034 219 
Q 2484 219 2732 495 
Q 2981 772 2981 1275 
z
M 2853 3541 
Q 2853 3966 2637 4203 
Q 2422 4441 2034 4441 
Q 1650 4441 1433 4203 
Q 1216 3966 1216 3541 
Q 1216 3113 1433 2875 
Q 1650 2638 2034 2638 
Q 2422 2638 2637 2875 
Q 2853 3113 2853 3541 
z
M 2516 2484 
Q 3047 2413 3344 2092 
Q 3641 1772 3641 1275 
Q 3641 619 3225 264 
Q 2809 -91 2034 -91 
Q 1263 -91 845 264 
Q 428 619 428 1275 
Q 428 1772 725 2092 
Q 1022 2413 1556 2484 
Q 1084 2569 832 2842 
Q 581 3116 581 3541 
Q 581 4103 968 4426 
Q 1356 4750 2034 4750 
Q 2713 4750 3100 4426 
Q 3488 4103 3488 3541 
Q 3488 3116 3236 2842 
Q 2984 2569 2516 2484 
z
" transform="scale(0.015625)"/>
       </defs>
       <use xlink:href="#DejaVuSerif-30"/>
       <use xlink:href="#DejaVuSerif-2e" x="63.623047"/>
       <use xlink:href="#DejaVuSerif-38" x="95.410156"/>
      </g>
     </g>
    </g>
    <g id="ytick_6">
     <g id="line2d_11">
      <path d="M 93.018125 70.88 
L 271.322187 70.88 
" clip-path="url(#p2431ddeef8)" style="fill: none; stroke: #ffffff; stroke-linecap: round"/>
     </g>
     <g id="text_7">
      <!-- 1.0 -->
      <g style="fill: #262626" transform="translate(42.17 80.757969) scale(0.26 -0.26)">
       <defs>
        <path id="DejaVuSerif-31" d="M 909 0 
L 909 331 
L 1722 331 
L 1722 4213 
L 781 3603 
L 781 4013 
L 1919 4750 
L 2350 4750 
L 2350 331 
L 3163 331 
L 3163 0 
L 909 0 
z
" transform="scale(0.015625)"/>
       </defs>
       <use xlink:href="#DejaVuSerif-31"/>
       <use xlink:href="#DejaVuSerif-2e" x="63.623047"/>
       <use xlink:href="#DejaVuSerif-30" x="95.410156"/>
      </g>
     </g>
    </g>
    <g id="text_8">
     <!-- Accuracy -->
     <g style="fill: #262626" transform="translate(31.06 310.935625) rotate(-90) scale(0.32 -0.32)">
      <defs>
       <path id="DejaVuSerif-75" d="M 2266 3322 
L 3341 3322 
L 3341 331 
L 3884 331 
L 3884 0 
L 2766 0 
L 2766 588 
Q 2606 256 2353 82 
Q 2100 -91 1766 -91 
Q 1213 -91 952 223 
Q 691 538 691 1209 
L 691 2988 
L 172 2988 
L 172 3322 
L 1269 3322 
L 1269 1388 
Q 1269 781 1417 556 
Q 1566 331 1947 331 
Q 2347 331 2556 625 
Q 2766 919 2766 1478 
L 2766 2988 
L 2266 2988 
L 2266 3322 
z
" transform="scale(0.015625)"/>
       <path id="DejaVuSerif-72" d="M 3059 3328 
L 3059 2497 
L 2728 2497 
Q 2713 2744 2591 2866 
Q 2469 2988 2234 2988 
Q 1809 2988 1582 2694 
Q 1356 2400 1356 1850 
L 1356 331 
L 2022 331 
L 2022 0 
L 263 0 
L 263 331 
L 781 331 
L 781 2994 
L 231 2994 
L 231 3322 
L 1356 3322 
L 1356 2731 
Q 1525 3078 1790 3245 
Q 2056 3413 2438 3413 
Q 2578 3413 2733 3391 
Q 2888 3369 3059 3328 
z
" transform="scale(0.015625)"/>
       <path id="DejaVuSerif-79" d="M 1381 -609 
L 1600 -56 
L 359 2988 
L -19 2988 
L -19 3322 
L 1509 3322 
L 1509 2988 
L 978 2988 
L 1913 703 
L 2847 2988 
L 2350 2988 
L 2350 3322 
L 3597 3322 
L 3597 2988 
L 3225 2988 
L 1703 -750 
Q 1547 -1138 1356 -1280 
Q 1166 -1422 819 -1422 
Q 672 -1422 517 -1397 
Q 363 -1372 206 -1325 
L 206 -691 
L 500 -691 
Q 519 -903 608 -995 
Q 697 -1088 884 -1088 
Q 1056 -1088 1161 -992 
Q 1266 -897 1381 -609 
z
" transform="scale(0.015625)"/>
      </defs>
      <use xlink:href="#DejaVuSerif-41"/>
      <use xlink:href="#DejaVuSerif-63" x="72.216797"/>
      <use xlink:href="#DejaVuSerif-63" x="128.222656"/>
      <use xlink:href="#DejaVuSerif-75" x="184.228516"/>
      <use xlink:href="#DejaVuSerif-72" x="248.632812"/>
      <use xlink:href="#DejaVuSerif-61" x="296.435547"/>
      <use xlink:href="#DejaVuSerif-63" x="356.054688"/>
      <use xlink:href="#DejaVuSerif-79" x="412.060547"/>
     </g>
    </g>
   </g>
   <g id="patch_3">
    <path d="M 121.992535 401.05625 
L 153.195746 401.05625 
L 153.195746 111.956271 
L 121.992535 111.956271 
z
" clip-path="url(#p2431ddeef8)" style="fill: #9bd93c; stroke: #ffffff; stroke-linejoin: miter"/>
   </g>
   <g id="patch_4">
    <path d="M 153.195746 401.05625 
L 184.398957 401.05625 
L 184.398957 128.575548 
L 153.195746 128.575548 
z
" clip-path="url(#p2431ddeef8)" style="fill: #440154; stroke: #ffffff; stroke-linejoin: miter"/>
   </g>
   <g id="patch_5">
    <path d="M 184.398957 401.05625 
L 215.602168 401.05625 
L 215.602168 124.834969 
L 184.398957 124.834969 
z
" clip-path="url(#p2431ddeef8)" style="fill: #1f9f88; stroke: #ffffff; stroke-linejoin: miter"/>
   </g>
   <g id="patch_6">
    <path d="M 215.602168 401.05625 
L 246.805379 401.05625 
L 246.805379 136.302658 
L 215.602168 136.302658 
z
" clip-path="url(#p2431ddeef8)" style="fill: #375a8c; stroke: #ffffff; stroke-linejoin: miter"/>
   </g>
   <g id="LineCollection_1">
    <path d="M 137.594141 111.956271 
L 137.594141 111.956271 
" clip-path="url(#p2431ddeef8)" style="fill: none; stroke: #1a1a1a; stroke-width: 1.5"/>
   </g>
   <g id="line2d_12">
    <defs>
     <path id="m1fa24a2751" d="M 5 0 
L -5 -0 
" style="stroke: #1a1a1a"/>
    </defs>
    <g clip-path="url(#p2431ddeef8)">
     <use xlink:href="#m1fa24a2751" x="137.594141" y="111.956271" style="fill: #1a1a1a; stroke: #1a1a1a"/>
    </g>
   </g>
   <g id="line2d_13">
    <g clip-path="url(#p2431ddeef8)">
     <use xlink:href="#m1fa24a2751" x="137.594141" y="111.956271" style="fill: #1a1a1a; stroke: #1a1a1a"/>
    </g>
   </g>
   <g id="LineCollection_2">
    <path d="M 168.797352 128.575548 
L 168.797352 128.575548 
" clip-path="url(#p2431ddeef8)" style="fill: none; stroke: #1a1a1a; stroke-width: 1.5"/>
   </g>
   <g id="line2d_14">
    <g clip-path="url(#p2431ddeef8)">
     <use xlink:href="#m1fa24a2751" x="168.797352" y="128.575548" style="fill: #1a1a1a; stroke: #1a1a1a"/>
    </g>
   </g>
   <g id="line2d_15">
    <g clip-path="url(#p2431ddeef8)">
     <use xlink:href="#m1fa24a2751" x="168.797352" y="128.575548" style="fill: #1a1a1a; stroke: #1a1a1a"/>
    </g>
   </g>
   <g id="LineCollection_3">
    <path d="M 200.000562 124.834969 
L 200.000562 124.834969 
" clip-path="url(#p2431ddeef8)" style="fill: none; stroke: #1a1a1a; stroke-width: 1.5"/>
   </g>
   <g id="line2d_16">
    <g clip-path="url(#p2431ddeef8)">
     <use xlink:href="#m1fa24a2751" x="200.000562" y="124.834969" style="fill: #1a1a1a; stroke: #1a1a1a"/>
    </g>
   </g>
   <g id="line2d_17">
    <g clip-path="url(#p2431ddeef8)">
     <use xlink:href="#m1fa24a2751" x="200.000562" y="124.834969" style="fill: #1a1a1a; stroke: #1a1a1a"/>
    </g>
   </g>
   <g id="LineCollection_4">
    <path d="M 231.203773 136.302658 
L 231.203773 136.302658 
" clip-path="url(#p2431ddeef8)" style="fill: none; stroke: #1a1a1a; stroke-width: 1.5"/>
   </g>
   <g id="line2d_18">
    <g clip-path="url(#p2431ddeef8)">
     <use xlink:href="#m1fa24a2751" x="231.203773" y="136.302658" style="fill: #1a1a1a; stroke: #1a1a1a"/>
    </g>
   </g>
   <g id="line2d_19">
    <g clip-path="url(#p2431ddeef8)">
     <use xlink:href="#m1fa24a2751" x="231.203773" y="136.302658" style="fill: #1a1a1a; stroke: #1a1a1a"/>
    </g>
   </g>
   <g id="patch_7">
    <path d="M 93.018125 401.05625 
L 93.018125 70.88 
" style="fill: none; stroke: #ffffff; stroke-width: 1.25; stroke-linejoin: miter; stroke-linecap: square"/>
   </g>
   <g id="patch_8">
    <path d="M 93.018125 401.05625 
L 271.322187 401.05625 
" style="fill: none; stroke: #ffffff; stroke-width: 1.25; stroke-linejoin: miter; stroke-linecap: square"/>
   </g>
  </g>
  <g id="axes_2">
   <g id="patch_9">
    <path d="M 284.282188 401.05625 
L 462.58625 401.05625 
L 462.58625 70.88 
L 284.282188 70.88 
z
" style="fill: #eaeaf2"/>
   </g>
   <g id="matplotlib.axis_3">
    <g id="xtick_6">
     <g id="line2d_20">
      <path d="M 284.282188 401.05625 
L 284.282188 70.88 
" clip-path="url(#p7fc8f38b92)" style="fill: none; stroke: #ffffff; stroke-linecap: round"/>
     </g>
    </g>
    <g id="xtick_7">
     <g id="line2d_21">
      <path d="M 328.858203 401.05625 
L 328.858203 70.88 
" clip-path="url(#p7fc8f38b92)" style="fill: none; stroke: #ffffff; stroke-linecap: round"/>
     </g>
    </g>
    <g id="xtick_8">
     <g id="line2d_22">
      <path d="M 373.434219 401.05625 
L 373.434219 70.88 
" clip-path="url(#p7fc8f38b92)" style="fill: none; stroke: #ffffff; stroke-linecap: round"/>
     </g>
    </g>
    <g id="xtick_9">
     <g id="line2d_23">
      <path d="M 418.010234 401.05625 
L 418.010234 70.88 
" clip-path="url(#p7fc8f38b92)" style="fill: none; stroke: #ffffff; stroke-linecap: round"/>
     </g>
    </g>
    <g id="xtick_10">
     <g id="line2d_24">
      <path d="M 462.58625 401.05625 
L 462.58625 70.88 
" clip-path="url(#p7fc8f38b92)" style="fill: none; stroke: #ffffff; stroke-linecap: round"/>
     </g>
    </g>
    <g id="text_9">
     <!-- case: B -->
     <g style="fill: #262626" transform="translate(315.021719 438.87125) scale(0.32 -0.32)">
      <defs>
       <path id="DejaVuSerif-42" d="M 1581 331 
L 2516 331 
Q 3078 331 3337 575 
Q 3597 819 3597 1350 
Q 3597 1878 3339 2120 
Q 3081 2363 2516 2363 
L 1581 2363 
L 1581 331 
z
M 1581 2694 
L 2375 2694 
Q 2888 2694 3123 2891 
Q 3359 3088 3359 3513 
Q 3359 3941 3123 4136 
Q 2888 4331 2375 4331 
L 1581 4331 
L 1581 2694 
z
M 353 0 
L 353 331 
L 947 331 
L 947 4331 
L 353 4331 
L 353 4666 
L 2656 4666 
Q 3363 4666 3720 4377 
Q 4078 4088 4078 3513 
Q 4078 3097 3829 2850 
Q 3581 2603 3103 2547 
Q 3697 2472 4005 2167 
Q 4313 1863 4313 1350 
Q 4313 656 3875 328 
Q 3438 0 2509 0 
L 353 0 
z
" transform="scale(0.015625)"/>
      </defs>
      <use xlink:href="#DejaVuSerif-63"/>
      <use xlink:href="#DejaVuSerif-61" x="56.005859"/>
      <use xlink:href="#DejaVuSerif-73" x="115.625"/>
      <use xlink:href="#DejaVuSerif-65" x="166.943359"/>
      <use xlink:href="#DejaVuSerif-3a" x="226.123047"/>
      <use xlink:href="#DejaVuSerif-20" x="259.814453"/>
      <use xlink:href="#DejaVuSerif-42" x="291.601562"/>
     </g>
    </g>
   </g>
   <g id="matplotlib.axis_4">
    <g id="ytick_7">
     <g id="line2d_25">
      <path d="M 284.282188 401.05625 
L 462.58625 401.05625 
" clip-path="url(#p7fc8f38b92)" style="fill: none; stroke: #ffffff; stroke-linecap: round"/>
     </g>
    </g>
    <g id="ytick_8">
     <g id="line2d_26">
      <path d="M 284.282188 335.021 
L 462.58625 335.021 
" clip-path="url(#p7fc8f38b92)" style="fill: none; stroke: #ffffff; stroke-linecap: round"/>
     </g>
    </g>
    <g id="ytick_9">
     <g id="line2d_27">
      <path d="M 284.282188 268.98575 
L 462.58625 268.98575 
" clip-path="url(#p7fc8f38b92)" style="fill: none; stroke: #ffffff; stroke-linecap: round"/>
     </g>
    </g>
    <g id="ytick_10">
     <g id="line2d_28">
      <path d="M 284.282188 202.9505 
L 462.58625 202.9505 
" clip-path="url(#p7fc8f38b92)" style="fill: none; stroke: #ffffff; stroke-linecap: round"/>
     </g>
    </g>
    <g id="ytick_11">
     <g id="line2d_29">
      <path d="M 284.282188 136.91525 
L 462.58625 136.91525 
" clip-path="url(#p7fc8f38b92)" style="fill: none; stroke: #ffffff; stroke-linecap: round"/>
     </g>
    </g>
    <g id="ytick_12">
     <g id="line2d_30">
      <path d="M 284.282188 70.88 
L 462.58625 70.88 
" clip-path="url(#p7fc8f38b92)" style="fill: none; stroke: #ffffff; stroke-linecap: round"/>
     </g>
    </g>
   </g>
   <g id="patch_10">
    <path d="M 313.256598 401.05625 
L 344.459809 401.05625 
L 344.459809 124.337966 
L 313.256598 124.337966 
z
" clip-path="url(#p7fc8f38b92)" style="fill: #9bd93c; stroke: #ffffff; stroke-linejoin: miter"/>
   </g>
   <g id="patch_11">
    <path d="M 344.459809 401.05625 
L 375.66302 401.05625 
L 375.66302 118.078272 
L 344.459809 118.078272 
z
" clip-path="url(#p7fc8f38b92)" style="fill: #440154; stroke: #ffffff; stroke-linejoin: miter"/>
   </g>
   <g id="patch_12">
    <path d="M 375.66302 401.05625 
L 406.86623 401.05625 
L 406.86623 126.545589 
L 375.66302 126.545589 
z
" clip-path="url(#p7fc8f38b92)" style="fill: #1f9f88; stroke: #ffffff; stroke-linejoin: miter"/>
   </g>
   <g id="patch_13">
    <path d="M 406.86623 401.05625 
L 438.069441 401.05625 
L 438.069441 143.347942 
L 406.86623 143.347942 
z
" clip-path="url(#p7fc8f38b92)" style="fill: #375a8c; stroke: #ffffff; stroke-linejoin: miter"/>
   </g>
   <g id="LineCollection_5">
    <path d="M 328.858203 124.337966 
L 328.858203 124.337966 
" clip-path="url(#p7fc8f38b92)" style="fill: none; stroke: #1a1a1a; stroke-width: 1.5"/>
   </g>
   <g id="line2d_31">
    <g clip-path="url(#p7fc8f38b92)">
     <use xlink:href="#m1fa24a2751" x="328.858203" y="124.337966" style="fill: #1a1a1a; stroke: #1a1a1a"/>
    </g>
   </g>
   <g id="line2d_32">
    <g clip-path="url(#p7fc8f38b92)">
     <use xlink:href="#m1fa24a2751" x="328.858203" y="124.337966" style="fill: #1a1a1a; stroke: #1a1a1a"/>
    </g>
   </g>
   <g id="LineCollection_6">
    <path d="M 360.061414 118.078272 
L 360.061414 118.078272 
" clip-path="url(#p7fc8f38b92)" style="fill: none; stroke: #1a1a1a; stroke-width: 1.5"/>
   </g>
   <g id="line2d_33">
    <g clip-path="url(#p7fc8f38b92)">
     <use xlink:href="#m1fa24a2751" x="360.061414" y="118.078272" style="fill: #1a1a1a; stroke: #1a1a1a"/>
    </g>
   </g>
   <g id="line2d_34">
    <g clip-path="url(#p7fc8f38b92)">
     <use xlink:href="#m1fa24a2751" x="360.061414" y="118.078272" style="fill: #1a1a1a; stroke: #1a1a1a"/>
    </g>
   </g>
   <g id="LineCollection_7">
    <path d="M 391.264625 126.545589 
L 391.264625 126.545589 
" clip-path="url(#p7fc8f38b92)" style="fill: none; stroke: #1a1a1a; stroke-width: 1.5"/>
   </g>
   <g id="line2d_35">
    <g clip-path="url(#p7fc8f38b92)">
     <use xlink:href="#m1fa24a2751" x="391.264625" y="126.545589" style="fill: #1a1a1a; stroke: #1a1a1a"/>
    </g>
   </g>
   <g id="line2d_36">
    <g clip-path="url(#p7fc8f38b92)">
     <use xlink:href="#m1fa24a2751" x="391.264625" y="126.545589" style="fill: #1a1a1a; stroke: #1a1a1a"/>
    </g>
   </g>
   <g id="LineCollection_8">
    <path d="M 422.467836 143.347942 
L 422.467836 143.347942 
" clip-path="url(#p7fc8f38b92)" style="fill: none; stroke: #1a1a1a; stroke-width: 1.5"/>
   </g>
   <g id="line2d_37">
    <g clip-path="url(#p7fc8f38b92)">
     <use xlink:href="#m1fa24a2751" x="422.467836" y="143.347942" style="fill: #1a1a1a; stroke: #1a1a1a"/>
    </g>
   </g>
   <g id="line2d_38">
    <g clip-path="url(#p7fc8f38b92)">
     <use xlink:href="#m1fa24a2751" x="422.467836" y="143.347942" style="fill: #1a1a1a; stroke: #1a1a1a"/>
    </g>
   </g>
   <g id="patch_14">
    <path d="M 284.282188 401.05625 
L 284.282188 70.88 
" style="fill: none; stroke: #ffffff; stroke-width: 1.25; stroke-linejoin: miter; stroke-linecap: square"/>
   </g>
   <g id="patch_15">
    <path d="M 284.282188 401.05625 
L 462.58625 401.05625 
" style="fill: none; stroke: #ffffff; stroke-width: 1.25; stroke-linejoin: miter; stroke-linecap: square"/>
   </g>
  </g>
  <g id="axes_3">
   <g id="patch_16">
    <path d="M 475.54625 401.05625 
L 653.850312 401.05625 
L 653.850312 70.88 
L 475.54625 70.88 
z
" style="fill: #eaeaf2"/>
   </g>
   <g id="matplotlib.axis_5">
    <g id="xtick_11">
     <g id="line2d_39">
      <path d="M 475.54625 401.05625 
L 475.54625 70.88 
" clip-path="url(#pa7bfad6dcf)" style="fill: none; stroke: #ffffff; stroke-linecap: round"/>
     </g>
    </g>
    <g id="xtick_12">
     <g id="line2d_40">
      <path d="M 520.122266 401.05625 
L 520.122266 70.88 
" clip-path="url(#pa7bfad6dcf)" style="fill: none; stroke: #ffffff; stroke-linecap: round"/>
     </g>
    </g>
    <g id="xtick_13">
     <g id="line2d_41">
      <path d="M 564.698281 401.05625 
L 564.698281 70.88 
" clip-path="url(#pa7bfad6dcf)" style="fill: none; stroke: #ffffff; stroke-linecap: round"/>
     </g>
    </g>
    <g id="xtick_14">
     <g id="line2d_42">
      <path d="M 609.274297 401.05625 
L 609.274297 70.88 
" clip-path="url(#pa7bfad6dcf)" style="fill: none; stroke: #ffffff; stroke-linecap: round"/>
     </g>
    </g>
    <g id="xtick_15">
     <g id="line2d_43">
      <path d="M 653.850312 401.05625 
L 653.850312 70.88 
" clip-path="url(#pa7bfad6dcf)" style="fill: none; stroke: #ffffff; stroke-linecap: round"/>
     </g>
    </g>
    <g id="text_10">
     <!-- case: C -->
     <g style="fill: #262626" transform="translate(505.800781 438.87125) scale(0.32 -0.32)">
      <defs>
       <path id="DejaVuSerif-43" d="M 4513 1234 
Q 4306 581 3820 245 
Q 3334 -91 2591 -91 
Q 2134 -91 1743 65 
Q 1353 222 1050 525 
Q 700 875 529 1320 
Q 359 1766 359 2328 
Q 359 3416 987 4083 
Q 1616 4750 2644 4750 
Q 3025 4750 3456 4650 
Q 3888 4550 4384 4347 
L 4384 3272 
L 4031 3272 
Q 3916 3859 3567 4137 
Q 3219 4416 2591 4416 
Q 1844 4416 1459 3886 
Q 1075 3356 1075 2328 
Q 1075 1303 1459 773 
Q 1844 244 2591 244 
Q 3113 244 3450 492 
Q 3788 741 3938 1234 
L 4513 1234 
z
" transform="scale(0.015625)"/>
      </defs>
      <use xlink:href="#DejaVuSerif-63"/>
      <use xlink:href="#DejaVuSerif-61" x="56.005859"/>
      <use xlink:href="#DejaVuSerif-73" x="115.625"/>
      <use xlink:href="#DejaVuSerif-65" x="166.943359"/>
      <use xlink:href="#DejaVuSerif-3a" x="226.123047"/>
      <use xlink:href="#DejaVuSerif-20" x="259.814453"/>
      <use xlink:href="#DejaVuSerif-43" x="291.601562"/>
     </g>
    </g>
   </g>
   <g id="matplotlib.axis_6">
    <g id="ytick_13">
     <g id="line2d_44">
      <path d="M 475.54625 401.05625 
L 653.850312 401.05625 
" clip-path="url(#pa7bfad6dcf)" style="fill: none; stroke: #ffffff; stroke-linecap: round"/>
     </g>
    </g>
    <g id="ytick_14">
     <g id="line2d_45">
      <path d="M 475.54625 335.021 
L 653.850312 335.021 
" clip-path="url(#pa7bfad6dcf)" style="fill: none; stroke: #ffffff; stroke-linecap: round"/>
     </g>
    </g>
    <g id="ytick_15">
     <g id="line2d_46">
      <path d="M 475.54625 268.98575 
L 653.850312 268.98575 
" clip-path="url(#pa7bfad6dcf)" style="fill: none; stroke: #ffffff; stroke-linecap: round"/>
     </g>
    </g>
    <g id="ytick_16">
     <g id="line2d_47">
      <path d="M 475.54625 202.9505 
L 653.850312 202.9505 
" clip-path="url(#pa7bfad6dcf)" style="fill: none; stroke: #ffffff; stroke-linecap: round"/>
     </g>
    </g>
    <g id="ytick_17">
     <g id="line2d_48">
      <path d="M 475.54625 136.91525 
L 653.850312 136.91525 
" clip-path="url(#pa7bfad6dcf)" style="fill: none; stroke: #ffffff; stroke-linecap: round"/>
     </g>
    </g>
    <g id="ytick_18">
     <g id="line2d_49">
      <path d="M 475.54625 70.88 
L 653.850312 70.88 
" clip-path="url(#pa7bfad6dcf)" style="fill: none; stroke: #ffffff; stroke-linecap: round"/>
     </g>
    </g>
   </g>
   <g id="patch_17">
    <path d="M 504.52066 401.05625 
L 535.723871 401.05625 
L 535.723871 107.504175 
L 504.52066 107.504175 
z
" clip-path="url(#pa7bfad6dcf)" style="fill: #9bd93c; stroke: #ffffff; stroke-linejoin: miter"/>
   </g>
   <g id="patch_18">
    <path d="M 535.723871 401.05625 
L 566.927082 401.05625 
L 566.927082 140.615543 
L 535.723871 140.615543 
z
" clip-path="url(#pa7bfad6dcf)" style="fill: #440154; stroke: #ffffff; stroke-linejoin: miter"/>
   </g>
   <g id="patch_19">
    <path d="M 566.927082 401.05625 
L 598.130293 401.05625 
L 598.130293 143.73534 
L 566.927082 143.73534 
z
" clip-path="url(#pa7bfad6dcf)" style="fill: #1f9f88; stroke: #ffffff; stroke-linejoin: miter"/>
   </g>
   <g id="patch_20">
    <path d="M 598.130293 401.05625 
L 629.333504 401.05625 
L 629.333504 163.837417 
L 598.130293 163.837417 
z
" clip-path="url(#pa7bfad6dcf)" style="fill: #375a8c; stroke: #ffffff; stroke-linejoin: miter"/>
   </g>
   <g id="LineCollection_9">
    <path d="M 520.122266 107.504175 
L 520.122266 107.504175 
" clip-path="url(#pa7bfad6dcf)" style="fill: none; stroke: #1a1a1a; stroke-width: 1.5"/>
   </g>
   <g id="line2d_50">
    <g clip-path="url(#pa7bfad6dcf)">
     <use xlink:href="#m1fa24a2751" x="520.122266" y="107.504175" style="fill: #1a1a1a; stroke: #1a1a1a"/>
    </g>
   </g>
   <g id="line2d_51">
    <g clip-path="url(#pa7bfad6dcf)">
     <use xlink:href="#m1fa24a2751" x="520.122266" y="107.504175" style="fill: #1a1a1a; stroke: #1a1a1a"/>
    </g>
   </g>
   <g id="LineCollection_10">
    <path d="M 551.325477 140.615543 
L 551.325477 140.615543 
" clip-path="url(#pa7bfad6dcf)" style="fill: none; stroke: #1a1a1a; stroke-width: 1.5"/>
   </g>
   <g id="line2d_52">
    <g clip-path="url(#pa7bfad6dcf)">
     <use xlink:href="#m1fa24a2751" x="551.325477" y="140.615543" style="fill: #1a1a1a; stroke: #1a1a1a"/>
    </g>
   </g>
   <g id="line2d_53">
    <g clip-path="url(#pa7bfad6dcf)">
     <use xlink:href="#m1fa24a2751" x="551.325477" y="140.615543" style="fill: #1a1a1a; stroke: #1a1a1a"/>
    </g>
   </g>
   <g id="LineCollection_11">
    <path d="M 582.528687 143.73534 
L 582.528687 143.73534 
" clip-path="url(#pa7bfad6dcf)" style="fill: none; stroke: #1a1a1a; stroke-width: 1.5"/>
   </g>
   <g id="line2d_54">
    <g clip-path="url(#pa7bfad6dcf)">
     <use xlink:href="#m1fa24a2751" x="582.528687" y="143.73534" style="fill: #1a1a1a; stroke: #1a1a1a"/>
    </g>
   </g>
   <g id="line2d_55">
    <g clip-path="url(#pa7bfad6dcf)">
     <use xlink:href="#m1fa24a2751" x="582.528687" y="143.73534" style="fill: #1a1a1a; stroke: #1a1a1a"/>
    </g>
   </g>
   <g id="LineCollection_12">
    <path d="M 613.731898 163.837417 
L 613.731898 163.837417 
" clip-path="url(#pa7bfad6dcf)" style="fill: none; stroke: #1a1a1a; stroke-width: 1.5"/>
   </g>
   <g id="line2d_56">
    <g clip-path="url(#pa7bfad6dcf)">
     <use xlink:href="#m1fa24a2751" x="613.731898" y="163.837417" style="fill: #1a1a1a; stroke: #1a1a1a"/>
    </g>
   </g>
   <g id="line2d_57">
    <g clip-path="url(#pa7bfad6dcf)">
     <use xlink:href="#m1fa24a2751" x="613.731898" y="163.837417" style="fill: #1a1a1a; stroke: #1a1a1a"/>
    </g>
   </g>
   <g id="patch_21">
    <path d="M 475.54625 401.05625 
L 475.54625 70.88 
" style="fill: none; stroke: #ffffff; stroke-width: 1.25; stroke-linejoin: miter; stroke-linecap: square"/>
   </g>
   <g id="patch_22">
    <path d="M 475.54625 401.05625 
L 653.850312 401.05625 
" style="fill: none; stroke: #ffffff; stroke-width: 1.25; stroke-linejoin: miter; stroke-linecap: square"/>
   </g>
  </g>
  <g id="axes_4">
   <g id="patch_23">
    <path d="M 666.810313 401.05625 
L 845.114375 401.05625 
L 845.114375 70.88 
L 666.810313 70.88 
z
" style="fill: #eaeaf2"/>
   </g>
   <g id="matplotlib.axis_7">
    <g id="xtick_16">
     <g id="line2d_58">
      <path d="M 666.810313 401.05625 
L 666.810313 70.88 
" clip-path="url(#pc492478c9e)" style="fill: none; stroke: #ffffff; stroke-linecap: round"/>
     </g>
    </g>
    <g id="xtick_17">
     <g id="line2d_59">
      <path d="M 711.386328 401.05625 
L 711.386328 70.88 
" clip-path="url(#pc492478c9e)" style="fill: none; stroke: #ffffff; stroke-linecap: round"/>
     </g>
    </g>
    <g id="xtick_18">
     <g id="line2d_60">
      <path d="M 755.962344 401.05625 
L 755.962344 70.88 
" clip-path="url(#pc492478c9e)" style="fill: none; stroke: #ffffff; stroke-linecap: round"/>
     </g>
    </g>
    <g id="xtick_19">
     <g id="line2d_61">
      <path d="M 800.538359 401.05625 
L 800.538359 70.88 
" clip-path="url(#pc492478c9e)" style="fill: none; stroke: #ffffff; stroke-linecap: round"/>
     </g>
    </g>
    <g id="xtick_20">
     <g id="line2d_62">
      <path d="M 845.114375 401.05625 
L 845.114375 70.88 
" clip-path="url(#pc492478c9e)" style="fill: none; stroke: #ffffff; stroke-linecap: round"/>
     </g>
    </g>
    <g id="text_11">
     <!-- case: D -->
     <g style="fill: #262626" transform="translate(696.479844 438.87125) scale(0.32 -0.32)">
      <defs>
       <path id="DejaVuSerif-44" d="M 1581 331 
L 2163 331 
Q 3072 331 3558 850 
Q 4044 1369 4044 2338 
Q 4044 3306 3559 3818 
Q 3075 4331 2163 4331 
L 1581 4331 
L 1581 331 
z
M 353 0 
L 353 331 
L 947 331 
L 947 4331 
L 353 4331 
L 353 4666 
L 2209 4666 
Q 3416 4666 4089 4050 
Q 4763 3434 4763 2338 
Q 4763 1238 4088 619 
Q 3413 0 2209 0 
L 353 0 
z
" transform="scale(0.015625)"/>
      </defs>
      <use xlink:href="#DejaVuSerif-63"/>
      <use xlink:href="#DejaVuSerif-61" x="56.005859"/>
      <use xlink:href="#DejaVuSerif-73" x="115.625"/>
      <use xlink:href="#DejaVuSerif-65" x="166.943359"/>
      <use xlink:href="#DejaVuSerif-3a" x="226.123047"/>
      <use xlink:href="#DejaVuSerif-20" x="259.814453"/>
      <use xlink:href="#DejaVuSerif-44" x="291.601562"/>
     </g>
    </g>
   </g>
   <g id="matplotlib.axis_8">
    <g id="ytick_19">
     <g id="line2d_63">
      <path d="M 666.810313 401.05625 
L 845.114375 401.05625 
" clip-path="url(#pc492478c9e)" style="fill: none; stroke: #ffffff; stroke-linecap: round"/>
     </g>
    </g>
    <g id="ytick_20">
     <g id="line2d_64">
      <path d="M 666.810313 335.021 
L 845.114375 335.021 
" clip-path="url(#pc492478c9e)" style="fill: none; stroke: #ffffff; stroke-linecap: round"/>
     </g>
    </g>
    <g id="ytick_21">
     <g id="line2d_65">
      <path d="M 666.810313 268.98575 
L 845.114375 268.98575 
" clip-path="url(#pc492478c9e)" style="fill: none; stroke: #ffffff; stroke-linecap: round"/>
     </g>
    </g>
    <g id="ytick_22">
     <g id="line2d_66">
      <path d="M 666.810313 202.9505 
L 845.114375 202.9505 
" clip-path="url(#pc492478c9e)" style="fill: none; stroke: #ffffff; stroke-linecap: round"/>
     </g>
    </g>
    <g id="ytick_23">
     <g id="line2d_67">
      <path d="M 666.810313 136.91525 
L 845.114375 136.91525 
" clip-path="url(#pc492478c9e)" style="fill: none; stroke: #ffffff; stroke-linecap: round"/>
     </g>
    </g>
    <g id="ytick_24">
     <g id="line2d_68">
      <path d="M 666.810313 70.88 
L 845.114375 70.88 
" clip-path="url(#pc492478c9e)" style="fill: none; stroke: #ffffff; stroke-linecap: round"/>
     </g>
    </g>
   </g>
   <g id="patch_24">
    <path d="M 695.784723 401.05625 
L 726.987934 401.05625 
L 726.987934 109.524598 
L 695.784723 109.524598 
z
" clip-path="url(#pc492478c9e)" style="fill: #9bd93c; stroke: #ffffff; stroke-linejoin: miter"/>
   </g>
   <g id="patch_25">
    <path d="M 726.987934 401.05625 
L 758.191145 401.05625 
L 758.191145 170.879007 
L 726.987934 170.879007 
z
" clip-path="url(#pc492478c9e)" style="fill: #440154; stroke: #ffffff; stroke-linejoin: miter"/>
   </g>
   <g id="patch_26">
    <path d="M 758.191145 401.05625 
L 789.394355 401.05625 
L 789.394355 142.139421 
L 758.191145 142.139421 
z
" clip-path="url(#pc492478c9e)" style="fill: #1f9f88; stroke: #ffffff; stroke-linejoin: miter"/>
   </g>
   <g id="patch_27">
    <path d="M 789.394355 401.05625 
L 820.597566 401.05625 
L 820.597566 164.919439 
L 789.394355 164.919439 
z
" clip-path="url(#pc492478c9e)" style="fill: #375a8c; stroke: #ffffff; stroke-linejoin: miter"/>
   </g>
   <g id="LineCollection_13">
    <path d="M 711.386328 109.524598 
L 711.386328 109.524598 
" clip-path="url(#pc492478c9e)" style="fill: none; stroke: #1a1a1a; stroke-width: 1.5"/>
   </g>
   <g id="line2d_69">
    <g clip-path="url(#pc492478c9e)">
     <use xlink:href="#m1fa24a2751" x="711.386328" y="109.524598" style="fill: #1a1a1a; stroke: #1a1a1a"/>
    </g>
   </g>
   <g id="line2d_70">
    <g clip-path="url(#pc492478c9e)">
     <use xlink:href="#m1fa24a2751" x="711.386328" y="109.524598" style="fill: #1a1a1a; stroke: #1a1a1a"/>
    </g>
   </g>
   <g id="LineCollection_14">
    <path d="M 742.589539 170.879007 
L 742.589539 170.879007 
" clip-path="url(#pc492478c9e)" style="fill: none; stroke: #1a1a1a; stroke-width: 1.5"/>
   </g>
   <g id="line2d_71">
    <g clip-path="url(#pc492478c9e)">
     <use xlink:href="#m1fa24a2751" x="742.589539" y="170.879007" style="fill: #1a1a1a; stroke: #1a1a1a"/>
    </g>
   </g>
   <g id="line2d_72">
    <g clip-path="url(#pc492478c9e)">
     <use xlink:href="#m1fa24a2751" x="742.589539" y="170.879007" style="fill: #1a1a1a; stroke: #1a1a1a"/>
    </g>
   </g>
   <g id="LineCollection_15">
    <path d="M 773.79275 142.139421 
L 773.79275 142.139421 
" clip-path="url(#pc492478c9e)" style="fill: none; stroke: #1a1a1a; stroke-width: 1.5"/>
   </g>
   <g id="line2d_73">
    <g clip-path="url(#pc492478c9e)">
     <use xlink:href="#m1fa24a2751" x="773.79275" y="142.139421" style="fill: #1a1a1a; stroke: #1a1a1a"/>
    </g>
   </g>
   <g id="line2d_74">
    <g clip-path="url(#pc492478c9e)">
     <use xlink:href="#m1fa24a2751" x="773.79275" y="142.139421" style="fill: #1a1a1a; stroke: #1a1a1a"/>
    </g>
   </g>
   <g id="LineCollection_16">
    <path d="M 804.995961 164.919439 
L 804.995961 164.919439 
" clip-path="url(#pc492478c9e)" style="fill: none; stroke: #1a1a1a; stroke-width: 1.5"/>
   </g>
   <g id="line2d_75">
    <g clip-path="url(#pc492478c9e)">
     <use xlink:href="#m1fa24a2751" x="804.995961" y="164.919439" style="fill: #1a1a1a; stroke: #1a1a1a"/>
    </g>
   </g>
   <g id="line2d_76">
    <g clip-path="url(#pc492478c9e)">
     <use xlink:href="#m1fa24a2751" x="804.995961" y="164.919439" style="fill: #1a1a1a; stroke: #1a1a1a"/>
    </g>
   </g>
   <g id="patch_28">
    <path d="M 666.810313 401.05625 
L 666.810313 70.88 
" style="fill: none; stroke: #ffffff; stroke-width: 1.25; stroke-linejoin: miter; stroke-linecap: square"/>
   </g>
   <g id="patch_29">
    <path d="M 666.810313 401.05625 
L 845.114375 401.05625 
" style="fill: none; stroke: #ffffff; stroke-width: 1.25; stroke-linejoin: miter; stroke-linecap: square"/>
   </g>
  </g>
  <g id="legend_1">
   <g id="patch_30">
    <path d="M 23.411563 37.355937 
L 75.411563 37.355937 
L 75.411563 19.155937 
L 23.411563 19.155937 
z
" style="fill: #9bd93c"/>
   </g>
   <g id="text_12">
    <!-- proposal -->
    <g style="fill: #262626" transform="translate(96.211563 37.355937) scale(0.26 -0.26)">
     <defs>
      <path id="DejaVuSerif-70" d="M 1313 1825 
L 1313 1497 
Q 1313 897 1542 583 
Q 1772 269 2209 269 
Q 2650 269 2876 622 
Q 3103 975 3103 1663 
Q 3103 2353 2876 2703 
Q 2650 3053 2209 3053 
Q 1772 3053 1542 2737 
Q 1313 2422 1313 1825 
z
M 738 2988 
L 184 2988 
L 184 3322 
L 1313 3322 
L 1313 2803 
Q 1481 3116 1742 3264 
Q 2003 3413 2388 3413 
Q 3000 3413 3387 2928 
Q 3775 2444 3775 1663 
Q 3775 881 3387 395 
Q 3000 -91 2388 -91 
Q 2003 -91 1742 57 
Q 1481 206 1313 519 
L 1313 -997 
L 1856 -997 
L 1856 -1331 
L 184 -1331 
L 184 -997 
L 738 -997 
L 738 2988 
z
" transform="scale(0.015625)"/>
      <path id="DejaVuSerif-6f" d="M 1925 219 
Q 2388 219 2623 584 
Q 2859 950 2859 1663 
Q 2859 2375 2623 2739 
Q 2388 3103 1925 3103 
Q 1463 3103 1227 2739 
Q 991 2375 991 1663 
Q 991 950 1228 584 
Q 1466 219 1925 219 
z
M 1925 -91 
Q 1200 -91 759 389 
Q 319 869 319 1663 
Q 319 2456 758 2934 
Q 1197 3413 1925 3413 
Q 2653 3413 3092 2934 
Q 3531 2456 3531 1663 
Q 3531 869 3092 389 
Q 2653 -91 1925 -91 
z
" transform="scale(0.015625)"/>
      <path id="DejaVuSerif-6c" d="M 1313 331 
L 1856 331 
L 1856 0 
L 184 0 
L 184 331 
L 738 331 
L 738 4531 
L 184 4531 
L 184 4863 
L 1313 4863 
L 1313 331 
z
" transform="scale(0.015625)"/>
     </defs>
     <use xlink:href="#DejaVuSerif-70"/>
     <use xlink:href="#DejaVuSerif-72" x="64.013672"/>
     <use xlink:href="#DejaVuSerif-6f" x="111.816406"/>
     <use xlink:href="#DejaVuSerif-70" x="172.021484"/>
     <use xlink:href="#DejaVuSerif-6f" x="236.035156"/>
     <use xlink:href="#DejaVuSerif-73" x="296.240234"/>
     <use xlink:href="#DejaVuSerif-61" x="347.558594"/>
     <use xlink:href="#DejaVuSerif-6c" x="407.177734"/>
    </g>
   </g>
   <g id="patch_31">
    <path d="M 262.392187 37.355937 
L 314.392187 37.355937 
L 314.392187 19.155937 
L 262.392187 19.155937 
z
" style="fill: #440154"/>
   </g>
   <g id="text_13">
    <!-- lstm -->
    <g style="fill: #262626" transform="translate(335.192187 37.355937) scale(0.26 -0.26)">
     <defs>
      <path id="DejaVuSerif-74" d="M 691 2988 
L 184 2988 
L 184 3322 
L 691 3322 
L 691 4353 
L 1269 4353 
L 1269 3322 
L 2350 3322 
L 2350 2988 
L 1269 2988 
L 1269 878 
Q 1269 456 1350 337 
Q 1431 219 1650 219 
Q 1875 219 1978 351 
Q 2081 484 2088 781 
L 2522 781 
Q 2497 328 2275 118 
Q 2053 -91 1600 -91 
Q 1103 -91 897 129 
Q 691 350 691 878 
L 691 2988 
z
" transform="scale(0.015625)"/>
      <path id="DejaVuSerif-6d" d="M 3316 2675 
Q 3481 3041 3739 3227 
Q 3997 3413 4341 3413 
Q 4863 3413 5119 3089 
Q 5375 2766 5375 2113 
L 5375 331 
L 5894 331 
L 5894 0 
L 4300 0 
L 4300 331 
L 4800 331 
L 4800 2047 
Q 4800 2556 4650 2772 
Q 4500 2988 4153 2988 
Q 3769 2988 3567 2697 
Q 3366 2406 3366 1850 
L 3366 331 
L 3866 331 
L 3866 0 
L 2291 0 
L 2291 331 
L 2791 331 
L 2791 2069 
Q 2791 2566 2641 2777 
Q 2491 2988 2144 2988 
Q 1759 2988 1557 2697 
Q 1356 2406 1356 1850 
L 1356 331 
L 1856 331 
L 1856 0 
L 263 0 
L 263 331 
L 781 331 
L 781 2994 
L 231 2994 
L 231 3322 
L 1356 3322 
L 1356 2731 
Q 1516 3063 1762 3238 
Q 2009 3413 2322 3413 
Q 2709 3413 2968 3220 
Q 3228 3028 3316 2675 
z
" transform="scale(0.015625)"/>
     </defs>
     <use xlink:href="#DejaVuSerif-6c"/>
     <use xlink:href="#DejaVuSerif-73" x="31.982422"/>
     <use xlink:href="#DejaVuSerif-74" x="83.300781"/>
     <use xlink:href="#DejaVuSerif-6d" x="123.486328"/>
    </g>
   </g>
   <g id="patch_32">
    <path d="M 443.953437 37.355937 
L 495.953437 37.355937 
L 495.953437 19.155937 
L 443.953437 19.155937 
z
" style="fill: #1f9f88"/>
   </g>
   <g id="text_14">
    <!-- param-snn -->
    <g style="fill: #262626" transform="translate(516.753437 37.355937) scale(0.26 -0.26)">
     <defs>
      <path id="DejaVuSerif-2d" d="M 281 1959 
L 1881 1959 
L 1881 1472 
L 281 1472 
L 281 1959 
z
" transform="scale(0.015625)"/>
      <path id="DejaVuSerif-6e" d="M 263 0 
L 263 331 
L 781 331 
L 781 2988 
L 231 2988 
L 231 3322 
L 1356 3322 
L 1356 2731 
Q 1516 3069 1770 3241 
Q 2025 3413 2363 3413 
Q 2913 3413 3172 3097 
Q 3431 2781 3431 2113 
L 3431 331 
L 3944 331 
L 3944 0 
L 2356 0 
L 2356 331 
L 2853 331 
L 2853 1931 
Q 2853 2541 2703 2767 
Q 2553 2994 2175 2994 
Q 1775 2994 1565 2701 
Q 1356 2409 1356 1850 
L 1356 331 
L 1856 331 
L 1856 0 
L 263 0 
z
" transform="scale(0.015625)"/>
     </defs>
     <use xlink:href="#DejaVuSerif-70"/>
     <use xlink:href="#DejaVuSerif-61" x="64.013672"/>
     <use xlink:href="#DejaVuSerif-72" x="123.632812"/>
     <use xlink:href="#DejaVuSerif-61" x="171.435547"/>
     <use xlink:href="#DejaVuSerif-6d" x="231.054688"/>
     <use xlink:href="#DejaVuSerif-2d" x="325.878906"/>
     <use xlink:href="#DejaVuSerif-73" x="359.667969"/>
     <use xlink:href="#DejaVuSerif-6e" x="410.986328"/>
     <use xlink:href="#DejaVuSerif-6e" x="475.390625"/>
    </g>
   </g>
   <g id="patch_33">
    <path d="M 709.104688 37.355937 
L 761.104688 37.355937 
L 761.104688 19.155937 
L 709.104688 19.155937 
z
" style="fill: #375a8c"/>
   </g>
   <g id="text_15">
    <!-- snn -->
    <g style="fill: #262626" transform="translate(781.904688 37.355937) scale(0.26 -0.26)">
     <use xlink:href="#DejaVuSerif-73"/>
     <use xlink:href="#DejaVuSerif-6e" x="51.318359"/>
     <use xlink:href="#DejaVuSerif-6e" x="115.722656"/>
    </g>
   </g>
  </g>
  <g id="legend_2">
   <g id="patch_34">
    <path d="M 23.411563 37.355937 
L 75.411563 37.355937 
L 75.411563 19.155937 
L 23.411563 19.155937 
z
" style="fill: #9bd93c"/>
   </g>
   <g id="text_16">
    <!-- proposal -->
    <g style="fill: #262626" transform="translate(96.211563 37.355937) scale(0.26 -0.26)">
     <use xlink:href="#DejaVuSerif-70"/>
     <use xlink:href="#DejaVuSerif-72" x="64.013672"/>
     <use xlink:href="#DejaVuSerif-6f" x="111.816406"/>
     <use xlink:href="#DejaVuSerif-70" x="172.021484"/>
     <use xlink:href="#DejaVuSerif-6f" x="236.035156"/>
     <use xlink:href="#DejaVuSerif-73" x="296.240234"/>
     <use xlink:href="#DejaVuSerif-61" x="347.558594"/>
     <use xlink:href="#DejaVuSerif-6c" x="407.177734"/>
    </g>
   </g>
   <g id="patch_35">
    <path d="M 262.392187 37.355937 
L 314.392187 37.355937 
L 314.392187 19.155937 
L 262.392187 19.155937 
z
" style="fill: #440154"/>
   </g>
   <g id="text_17">
    <!-- lstm -->
    <g style="fill: #262626" transform="translate(335.192187 37.355937) scale(0.26 -0.26)">
     <use xlink:href="#DejaVuSerif-6c"/>
     <use xlink:href="#DejaVuSerif-73" x="31.982422"/>
     <use xlink:href="#DejaVuSerif-74" x="83.300781"/>
     <use xlink:href="#DejaVuSerif-6d" x="123.486328"/>
    </g>
   </g>
   <g id="patch_36">
    <path d="M 443.953437 37.355937 
L 495.953437 37.355937 
L 495.953437 19.155937 
L 443.953437 19.155937 
z
" style="fill: #1f9f88"/>
   </g>
   <g id="text_18">
    <!-- param-snn -->
    <g style="fill: #262626" transform="translate(516.753437 37.355937) scale(0.26 -0.26)">
     <use xlink:href="#DejaVuSerif-70"/>
     <use xlink:href="#DejaVuSerif-61" x="64.013672"/>
     <use xlink:href="#DejaVuSerif-72" x="123.632812"/>
     <use xlink:href="#DejaVuSerif-61" x="171.435547"/>
     <use xlink:href="#DejaVuSerif-6d" x="231.054688"/>
     <use xlink:href="#DejaVuSerif-2d" x="325.878906"/>
     <use xlink:href="#DejaVuSerif-73" x="359.667969"/>
     <use xlink:href="#DejaVuSerif-6e" x="410.986328"/>
     <use xlink:href="#DejaVuSerif-6e" x="475.390625"/>
    </g>
   </g>
   <g id="patch_37">
    <path d="M 709.104688 37.355937 
L 761.104688 37.355937 
L 761.104688 19.155937 
L 709.104688 19.155937 
z
" style="fill: #375a8c"/>
   </g>
   <g id="text_19">
    <!-- snn -->
    <g style="fill: #262626" transform="translate(781.904688 37.355937) scale(0.26 -0.26)">
     <use xlink:href="#DejaVuSerif-73"/>
     <use xlink:href="#DejaVuSerif-6e" x="51.318359"/>
     <use xlink:href="#DejaVuSerif-6e" x="115.722656"/>
    </g>
   </g>
  </g>
 </g>
 <defs>
  <clipPath id="p2431ddeef8">
   <rect x="93.018125" y="70.88" width="178.304062" height="330.17625"/>
  </clipPath>
  <clipPath id="p7fc8f38b92">
   <rect x="284.282188" y="70.88" width="178.304062" height="330.17625"/>
  </clipPath>
  <clipPath id="pa7bfad6dcf">
   <rect x="475.54625" y="70.88" width="178.304062" height="330.17625"/>
  </clipPath>
  <clipPath id="pc492478c9e">
   <rect x="666.810313" y="70.88" width="178.304062" height="330.17625"/>
  </clipPath>
 </defs>
</svg>
