<?xml version="1.0" encoding="utf-8" standalone="no"?>
<!DOCTYPE svg PUBLIC "-//W3C//DTD SVG 1.1//EN"
  "http://www.w3.org/Graphics/SVG/1.1/DTD/svg11.dtd">
<svg xmlns:xlink="http://www.w3.org/1999/xlink" width="864pt" height="432pt" viewBox="0 0 864 432" xmlns="http://www.w3.org/2000/svg" version="1.1">
 <metadata>
  <rdf:RDF xmlns:dc="http://purl.org/dc/elements/1.1/" xmlns:cc="http://creativecommons.org/ns#" xmlns:rdf="http://www.w3.org/1999/02/22-rdf-syntax-ns#">
   <cc:Work>
    <dc:type rdf:resource="http://purl.org/dc/dcmitype/StillImage"/>
    <dc:date>2024-09-11T17:27:50.654144</dc:date>
    <dc:format>image/svg+xml</dc:format>
    <dc:creator>
     <cc:Agent>
      <dc:title>Matplotlib v3.8.2, https://matplotlib.org/</dc:title>
     </cc:Agent>
    </dc:creator>
   </cc:Work>
  </rdf:RDF>
 </metadata>
 <defs>
  <style type="text/css">*{stroke-linejoin: round; stroke-linecap: butt}</style>
 </defs>
 <g id="figure_1">
  <g id="patch_1">
   <path d="M 0 432 
L 864 432 
L 864 0 
L 0 0 
z
" style="fill: #ffffff"/>
  </g>
  <g id="axes_1">
   <g id="patch_2">
    <path d="M 82.89 204.956487 
L 835.065 204.956487 
L 835.065 86.4 
L 82.89 86.4 
z
" style="fill: #eaeaf2"/>
   </g>
   <g id="matplotlib.axis_1">
    <g id="xtick_1">
     <g id="line2d_1">
      <path d="M 112.977 204.956487 
L 112.977 86.4 
" clip-path="url(#pb83ebf484b)" style="fill: none; stroke: #ffffff; stroke-linecap: round"/>
     </g>
    </g>
    <g id="xtick_2">
     <g id="line2d_2">
      <path d="M 203.238 204.956487 
L 203.238 86.4 
" clip-path="url(#pb83ebf484b)" style="fill: none; stroke: #ffffff; stroke-linecap: round"/>
     </g>
    </g>
    <g id="xtick_3">
     <g id="line2d_3">
      <path d="M 293.499 204.956487 
L 293.499 86.4 
" clip-path="url(#pb83ebf484b)" style="fill: none; stroke: #ffffff; stroke-linecap: round"/>
     </g>
    </g>
    <g id="xtick_4">
     <g id="line2d_4">
      <path d="M 383.76 204.956487 
L 383.76 86.4 
" clip-path="url(#pb83ebf484b)" style="fill: none; stroke: #ffffff; stroke-linecap: round"/>
     </g>
    </g>
    <g id="xtick_5">
     <g id="line2d_5">
      <path d="M 474.021 204.956487 
L 474.021 86.4 
" clip-path="url(#pb83ebf484b)" style="fill: none; stroke: #ffffff; stroke-linecap: round"/>
     </g>
    </g>
    <g id="xtick_6">
     <g id="line2d_6">
      <path d="M 564.282 204.956487 
L 564.282 86.4 
" clip-path="url(#pb83ebf484b)" style="fill: none; stroke: #ffffff; stroke-linecap: round"/>
     </g>
    </g>
    <g id="xtick_7">
     <g id="line2d_7">
      <path d="M 654.543 204.956487 
L 654.543 86.4 
" clip-path="url(#pb83ebf484b)" style="fill: none; stroke: #ffffff; stroke-linecap: round"/>
     </g>
    </g>
    <g id="xtick_8">
     <g id="line2d_8">
      <path d="M 744.804 204.956487 
L 744.804 86.4 
" clip-path="url(#pb83ebf484b)" style="fill: none; stroke: #ffffff; stroke-linecap: round"/>
     </g>
    </g>
    <g id="xtick_9">
     <g id="line2d_9">
      <path d="M 835.065 204.956487 
L 835.065 86.4 
" clip-path="url(#pb83ebf484b)" style="fill: none; stroke: #ffffff; stroke-linecap: round"/>
     </g>
    </g>
   </g>
   <g id="matplotlib.axis_2">
    <g id="ytick_1">
     <g id="line2d_10">
      <path d="M 82.89 199.567556 
L 835.065 199.567556 
" clip-path="url(#pb83ebf484b)" style="fill: none; stroke: #ffffff; stroke-linecap: round"/>
     </g>
     <g id="text_1">
      <!-- 0 -->
      <g style="fill: #262626" transform="translate(60.665 207.165994) scale(0.2 -0.2)">
       <defs>
        <path id="DejaVuSerif-30" d="M 2034 219 
Q 2513 219 2750 744 
Q 2988 1269 2988 2328 
Q 2988 3391 2750 3916 
Q 2513 4441 2034 4441 
Q 1556 4441 1318 3916 
Q 1081 3391 1081 2328 
Q 1081 1269 1318 744 
Q 1556 219 2034 219 
z
M 2034 -91 
Q 1275 -91 848 546 
Q 422 1184 422 2328 
Q 422 3475 848 4112 
Q 1275 4750 2034 4750 
Q 2797 4750 3222 4112 
Q 3647 3475 3647 2328 
Q 3647 1184 3222 546 
Q 2797 -91 2034 -91 
z
" transform="scale(0.015625)"/>
       </defs>
       <use xlink:href="#DejaVuSerif-30"/>
      </g>
     </g>
    </g>
    <g id="ytick_2">
     <g id="line2d_11">
      <path d="M 82.89 91.788931 
L 835.065 91.788931 
" clip-path="url(#pb83ebf484b)" style="fill: none; stroke: #ffffff; stroke-linecap: round"/>
     </g>
     <g id="text_2">
      <!-- 1 -->
      <g style="fill: #262626" transform="translate(60.665 99.387369) scale(0.2 -0.2)">
       <defs>
        <path id="DejaVuSerif-31" d="M 909 0 
L 909 331 
L 1722 331 
L 1722 4213 
L 781 3603 
L 781 4013 
L 1919 4750 
L 2350 4750 
L 2350 331 
L 3163 331 
L 3163 0 
L 909 0 
z
" transform="scale(0.015625)"/>
       </defs>
       <use xlink:href="#DejaVuSerif-31"/>
      </g>
     </g>
    </g>
    <g id="text_3">
     <!-- Density -->
     <g style="fill: #262626" transform="translate(50.888125 195.565744) rotate(-90) scale(0.26 -0.26)">
      <defs>
       <path id="DejaVuSerif-44" d="M 1581 331 
L 2163 331 
Q 3072 331 3558 850 
Q 4044 1369 4044 2338 
Q 4044 3306 3559 3818 
Q 3075 4331 2163 4331 
L 1581 4331 
L 1581 331 
z
M 353 0 
L 353 331 
L 947 331 
L 947 4331 
L 353 4331 
L 353 4666 
L 2209 4666 
Q 3416 4666 4089 4050 
Q 4763 3434 4763 2338 
Q 4763 1238 4088 619 
Q 3413 0 2209 0 
L 353 0 
z
" transform="scale(0.015625)"/>
       <path id="DejaVuSerif-65" d="M 3469 1600 
L 991 1600 
L 991 1575 
Q 991 903 1244 561 
Q 1497 219 1991 219 
Q 2369 219 2611 417 
Q 2853 616 2950 1006 
L 3413 1006 
Q 3275 459 2904 184 
Q 2534 -91 1931 -91 
Q 1203 -91 761 389 
Q 319 869 319 1663 
Q 319 2450 753 2931 
Q 1188 3413 1894 3413 
Q 2647 3413 3050 2948 
Q 3453 2484 3469 1600 
z
M 2791 1931 
Q 2772 2513 2545 2808 
Q 2319 3103 1894 3103 
Q 1497 3103 1269 2806 
Q 1041 2509 991 1931 
L 2791 1931 
z
" transform="scale(0.015625)"/>
       <path id="DejaVuSerif-6e" d="M 263 0 
L 263 331 
L 781 331 
L 781 2988 
L 231 2988 
L 231 3322 
L 1356 3322 
L 1356 2731 
Q 1516 3069 1770 3241 
Q 2025 3413 2363 3413 
Q 2913 3413 3172 3097 
Q 3431 2781 3431 2113 
L 3431 331 
L 3944 331 
L 3944 0 
L 2356 0 
L 2356 331 
L 2853 331 
L 2853 1931 
Q 2853 2541 2703 2767 
Q 2553 2994 2175 2994 
Q 1775 2994 1565 2701 
Q 1356 2409 1356 1850 
L 1356 331 
L 1856 331 
L 1856 0 
L 263 0 
z
" transform="scale(0.015625)"/>
       <path id="DejaVuSerif-73" d="M 359 184 
L 359 959 
L 691 959 
Q 703 588 923 403 
Q 1144 219 1575 219 
Q 1963 219 2166 364 
Q 2369 509 2369 788 
Q 2369 1006 2220 1140 
Q 2072 1275 1594 1428 
L 1178 1569 
Q 750 1706 558 1912 
Q 366 2119 366 2438 
Q 366 2894 700 3153 
Q 1034 3413 1625 3413 
Q 1888 3413 2178 3344 
Q 2469 3275 2778 3144 
L 2778 2419 
L 2447 2419 
Q 2434 2741 2221 2922 
Q 2009 3103 1644 3103 
Q 1281 3103 1095 2975 
Q 909 2847 909 2591 
Q 909 2381 1050 2254 
Q 1191 2128 1613 1997 
L 2069 1856 
Q 2541 1709 2748 1489 
Q 2956 1269 2956 922 
Q 2956 450 2595 179 
Q 2234 -91 1600 -91 
Q 1278 -91 972 -22 
Q 666 47 359 184 
z
" transform="scale(0.015625)"/>
       <path id="DejaVuSerif-69" d="M 622 4353 
Q 622 4497 726 4603 
Q 831 4709 978 4709 
Q 1122 4709 1226 4603 
Q 1331 4497 1331 4353 
Q 1331 4206 1228 4103 
Q 1125 4000 978 4000 
Q 831 4000 726 4103 
Q 622 4206 622 4353 
z
M 1356 331 
L 1900 331 
L 1900 0 
L 231 0 
L 231 331 
L 781 331 
L 781 2988 
L 231 2988 
L 231 3322 
L 1356 3322 
L 1356 331 
z
" transform="scale(0.015625)"/>
       <path id="DejaVuSerif-74" d="M 691 2988 
L 184 2988 
L 184 3322 
L 691 3322 
L 691 4353 
L 1269 4353 
L 1269 3322 
L 2350 3322 
L 2350 2988 
L 1269 2988 
L 1269 878 
Q 1269 456 1350 337 
Q 1431 219 1650 219 
Q 1875 219 1978 351 
Q 2081 484 2088 781 
L 2522 781 
Q 2497 328 2275 118 
Q 2053 -91 1600 -91 
Q 1103 -91 897 129 
Q 691 350 691 878 
L 691 2988 
z
" transform="scale(0.015625)"/>
       <path id="DejaVuSerif-79" d="M 1381 -609 
L 1600 -56 
L 359 2988 
L -19 2988 
L -19 3322 
L 1509 3322 
L 1509 2988 
L 978 2988 
L 1913 703 
L 2847 2988 
L 2350 2988 
L 2350 3322 
L 3597 3322 
L 3597 2988 
L 3225 2988 
L 1703 -750 
Q 1547 -1138 1356 -1280 
Q 1166 -1422 819 -1422 
Q 672 -1422 517 -1397 
Q 363 -1372 206 -1325 
L 206 -691 
L 500 -691 
Q 519 -903 608 -995 
Q 697 -1088 884 -1088 
Q 1056 -1088 1161 -992 
Q 1266 -897 1381 -609 
z
" transform="scale(0.015625)"/>
      </defs>
      <use xlink:href="#DejaVuSerif-44"/>
      <use xlink:href="#DejaVuSerif-65" x="80.175781"/>
      <use xlink:href="#DejaVuSerif-6e" x="139.355469"/>
      <use xlink:href="#DejaVuSerif-73" x="203.759766"/>
      <use xlink:href="#DejaVuSerif-69" x="255.078125"/>
      <use xlink:href="#DejaVuSerif-74" x="287.060547"/>
      <use xlink:href="#DejaVuSerif-79" x="327.246094"/>
     </g>
    </g>
   </g>
   <g id="line2d_12">
    <path d="M 82.89 199.567556 
L 832.0563 199.567556 
L 832.0563 199.567556 
" clip-path="url(#pb83ebf484b)" style="fill: none; stroke: #440154; stroke-width: 3; stroke-linecap: round"/>
   </g>
   <g id="line2d_13">
    <path d="M 82.89 199.567556 
L 832.0563 199.567556 
L 832.0563 199.567556 
" clip-path="url(#pb83ebf484b)" style="fill: none; stroke: #482173; stroke-width: 3; stroke-linecap: round"/>
   </g>
   <g id="line2d_14">
    <path d="M 82.89 199.567556 
L 832.0563 199.567556 
L 832.0563 199.567556 
" clip-path="url(#pb83ebf484b)" style="fill: none; stroke: #433e85; stroke-width: 3; stroke-linecap: round"/>
   </g>
   <g id="line2d_15">
    <path d="M 82.89 199.567556 
L 275.4468 199.567556 
L 278.4555 197.411984 
L 281.4642 197.411984 
L 425.8818 93.944502 
L 428.8905 93.944502 
L 431.8992 91.788931 
L 434.9079 93.944502 
L 440.9253 93.944502 
L 443.934 96.100079 
L 455.9688 96.100079 
L 458.9775 98.255649 
L 471.0123 98.255649 
L 474.021 100.411219 
L 519.1515 100.411219 
L 522.1602 102.566796 
L 525.1689 102.566796 
L 531.1863 106.877937 
L 534.195 106.877937 
L 540.2124 111.189084 
L 549.2385 111.189084 
L 576.3168 130.589238 
L 579.3255 130.589238 
L 582.3342 132.744808 
L 585.3429 132.744808 
L 591.3603 137.055956 
L 594.369 137.055956 
L 606.4038 145.678244 
L 609.4125 145.678244 
L 621.4473 154.300535 
L 624.456 154.300535 
L 669.5865 186.634121 
L 672.5952 186.634121 
L 675.6039 188.789693 
L 681.6213 188.789693 
L 684.63 190.945266 
L 690.6474 190.945266 
L 699.6735 197.411984 
L 726.7518 197.411984 
L 729.7605 199.567556 
L 832.0563 199.567556 
L 832.0563 199.567556 
" clip-path="url(#pb83ebf484b)" style="fill: none; stroke: #38588c; stroke-width: 3; stroke-linecap: round"/>
   </g>
   <g id="line2d_16">
    <path d="M 82.89 184.478549 
L 94.9248 184.478549 
L 115.9857 199.567556 
L 251.3772 199.567556 
L 254.3859 197.411984 
L 401.8122 197.411984 
L 404.8209 199.567556 
L 666.5778 199.567556 
L 678.6126 190.945266 
L 681.6213 190.945266 
L 804.978 102.566796 
L 814.0041 102.566796 
L 817.0128 100.411219 
L 829.0476 109.033514 
L 832.0563 109.033514 
L 832.0563 109.033514 
" clip-path="url(#pb83ebf484b)" style="fill: none; stroke: #2d708e; stroke-width: 3; stroke-linecap: round"/>
   </g>
   <g id="line2d_17">
    <path d="M 82.89 199.567556 
L 832.0563 199.567556 
L 832.0563 199.567556 
" clip-path="url(#pb83ebf484b)" style="fill: none; stroke: #25858e; stroke-width: 3; stroke-linecap: round"/>
   </g>
   <g id="line2d_18">
    <path d="M 82.89 199.567556 
L 832.0563 199.567556 
L 832.0563 199.567556 
" clip-path="url(#pb83ebf484b)" style="fill: none; stroke: #1e9b8a; stroke-width: 3; stroke-linecap: round"/>
   </g>
   <g id="line2d_19">
    <path d="M 82.89 197.411984 
L 88.9074 197.411984 
L 91.9161 199.567556 
L 645.5169 199.567556 
L 648.5256 197.411984 
L 651.5343 197.411984 
L 660.5604 190.945266 
L 795.9519 190.945266 
L 798.9606 193.100839 
L 801.9693 193.100839 
L 810.9954 199.567556 
L 832.0563 199.567556 
L 832.0563 199.567556 
" clip-path="url(#pb83ebf484b)" style="fill: none; stroke: #2ab07f; stroke-width: 3; stroke-linecap: round"/>
   </g>
   <g id="line2d_20">
    <path d="M 82.89 199.567556 
L 579.3255 199.567556 
L 582.3342 197.411984 
L 603.3951 197.411984 
L 615.4299 188.789693 
L 618.4386 188.789693 
L 624.456 184.478549 
L 660.5604 184.478549 
L 663.5691 182.322977 
L 729.7605 182.322977 
L 732.7692 184.478549 
L 753.8301 184.478549 
L 765.8649 193.100839 
L 768.8736 193.100839 
L 774.891 197.411984 
L 810.9954 197.411984 
L 814.0041 199.567556 
L 832.0563 199.567556 
L 832.0563 199.567556 
" clip-path="url(#pb83ebf484b)" style="fill: none; stroke: #52c569; stroke-width: 3; stroke-linecap: round"/>
   </g>
   <g id="line2d_21">
    <path d="M 82.89 121.966943 
L 88.9074 121.966943 
L 91.9161 119.811373 
L 94.9248 119.811373 
L 106.9596 111.189084 
L 112.977 111.189084 
L 125.0118 102.566796 
L 137.0466 102.566796 
L 146.0727 109.033514 
L 152.0901 109.033514 
L 155.0988 106.877937 
L 191.2032 106.877937 
L 194.2119 109.033514 
L 197.2206 109.033514 
L 200.2293 111.189084 
L 209.2554 111.189084 
L 218.2815 117.655802 
L 221.2902 117.655802 
L 227.3076 121.966943 
L 230.3163 121.966943 
L 257.3946 141.367096 
L 263.412 141.367096 
L 272.4381 147.833817 
L 275.4468 147.833817 
L 287.4816 156.456106 
L 296.5077 156.456106 
L 341.6382 188.789693 
L 344.6469 188.789693 
L 347.6556 190.945266 
L 350.6643 190.945266 
L 353.673 188.789693 
L 359.6904 193.100839 
L 377.7426 180.167403 
L 386.7687 180.167403 
L 392.7861 175.856259 
L 398.8035 175.856259 
L 404.8209 171.545115 
L 407.8296 171.545115 
L 410.8383 169.389541 
L 413.847 169.389541 
L 416.8557 167.233967 
L 422.8731 167.233967 
L 425.8818 169.389541 
L 428.8905 169.389541 
L 431.8992 167.233967 
L 440.9253 167.233967 
L 443.934 165.078397 
L 471.0123 165.078397 
L 474.021 162.922823 
L 504.108 162.922823 
L 510.1254 158.611679 
L 528.1776 158.611679 
L 531.1863 160.76725 
L 537.2037 156.456106 
L 543.2211 156.456106 
L 549.2385 152.144961 
L 555.2559 152.144961 
L 558.2646 149.989388 
L 561.2733 149.989388 
L 564.282 147.833817 
L 567.2907 147.833817 
L 570.2994 145.678244 
L 573.3081 145.678244 
L 576.3168 143.522673 
L 582.3342 143.522673 
L 591.3603 137.055956 
L 594.369 137.055956 
L 621.4473 117.655802 
L 624.456 117.655802 
L 645.5169 102.566796 
L 648.5256 102.566796 
L 651.5343 100.411219 
L 666.5778 100.411219 
L 672.5952 104.722367 
L 675.6039 104.722367 
L 678.6126 106.877937 
L 681.6213 104.722367 
L 720.7344 132.744808 
L 723.7431 132.744808 
L 726.7518 134.900379 
L 729.7605 134.900379 
L 795.9519 182.322977 
L 798.9606 182.322977 
L 807.9867 188.789693 
L 817.0128 188.789693 
L 823.0302 184.478549 
L 826.0389 184.478549 
L 829.0476 182.322977 
L 832.0563 182.322977 
L 832.0563 182.322977 
" clip-path="url(#pb83ebf484b)" style="fill: none; stroke: #86d549; stroke-width: 3; stroke-linecap: round"/>
   </g>
   <g id="line2d_22">
    <path d="M 82.89 178.011831 
L 85.8987 178.011831 
L 91.9161 173.700687 
L 106.9596 173.700687 
L 109.9683 171.545115 
L 112.977 171.545115 
L 125.0118 162.922823 
L 131.0292 162.922823 
L 149.0814 149.989388 
L 155.0988 149.989388 
L 158.1075 152.144961 
L 167.1336 152.144961 
L 170.1423 154.300535 
L 191.2032 154.300535 
L 194.2119 156.456106 
L 197.2206 156.456106 
L 200.2293 158.611679 
L 206.2467 158.611679 
L 209.2554 160.76725 
L 227.3076 160.76725 
L 230.3163 162.922823 
L 233.325 162.922823 
L 236.3337 160.76725 
L 242.3511 165.078397 
L 245.3598 165.078397 
L 248.3685 162.922823 
L 257.3946 162.922823 
L 260.4033 165.078397 
L 263.412 165.078397 
L 275.4468 173.700687 
L 281.4642 173.700687 
L 299.5164 186.634121 
L 302.5251 186.634121 
L 305.5338 188.789693 
L 368.7165 188.789693 
L 377.7426 195.256411 
L 383.76 195.256411 
L 386.7687 197.411984 
L 395.7948 197.411984 
L 398.8035 199.567556 
L 455.9688 199.567556 
L 458.9775 197.411984 
L 606.4038 197.411984 
L 609.4125 199.567556 
L 696.6648 199.567556 
L 702.6822 195.256411 
L 723.7431 195.256411 
L 726.7518 193.100839 
L 735.7779 193.100839 
L 741.7953 188.789693 
L 747.8127 188.789693 
L 750.8214 186.634121 
L 832.0563 186.634121 
L 832.0563 186.634121 
" clip-path="url(#pb83ebf484b)" style="fill: none; stroke: #c2df23; stroke-width: 3; stroke-linecap: round"/>
   </g>
   <g id="patch_3">
    <path d="M 82.89 204.956487 
L 82.89 86.4 
" style="fill: none; stroke: #ffffff; stroke-width: 1.25; stroke-linejoin: miter; stroke-linecap: square"/>
   </g>
   <g id="patch_4">
    <path d="M 835.065 204.956487 
L 835.065 86.4 
" style="fill: none; stroke: #ffffff; stroke-width: 1.25; stroke-linejoin: miter; stroke-linecap: square"/>
   </g>
   <g id="patch_5">
    <path d="M 82.89 204.956487 
L 835.065 204.956487 
" style="fill: none; stroke: #ffffff; stroke-width: 1.25; stroke-linejoin: miter; stroke-linecap: square"/>
   </g>
   <g id="patch_6">
    <path d="M 82.89 86.4 
L 835.065 86.4 
" style="fill: none; stroke: #ffffff; stroke-width: 1.25; stroke-linejoin: miter; stroke-linecap: square"/>
   </g>
   <g id="text_4">
    <!-- Output spike density $a=1.0$ / Proposed -->
    <g style="fill: #262626" transform="translate(198.9775 80.4) scale(0.26 -0.26)">
     <defs>
      <path id="DejaVuSerif-4f" d="M 2625 244 
Q 3391 244 3781 770 
Q 4172 1297 4172 2328 
Q 4172 3363 3781 3889 
Q 3391 4416 2625 4416 
Q 1856 4416 1465 3889 
Q 1075 3363 1075 2328 
Q 1075 1297 1465 770 
Q 1856 244 2625 244 
z
M 2625 -91 
Q 2150 -91 1751 65 
Q 1353 222 1050 525 
Q 700 875 529 1319 
Q 359 1763 359 2328 
Q 359 2894 529 3339 
Q 700 3784 1050 4134 
Q 1356 4441 1750 4595 
Q 2144 4750 2625 4750 
Q 3641 4750 4266 4084 
Q 4891 3419 4891 2328 
Q 4891 1769 4719 1320 
Q 4547 872 4197 525 
Q 3891 219 3497 64 
Q 3103 -91 2625 -91 
z
" transform="scale(0.015625)"/>
      <path id="DejaVuSerif-75" d="M 2266 3322 
L 3341 3322 
L 3341 331 
L 3884 331 
L 3884 0 
L 2766 0 
L 2766 588 
Q 2606 256 2353 82 
Q 2100 -91 1766 -91 
Q 1213 -91 952 223 
Q 691 538 691 1209 
L 691 2988 
L 172 2988 
L 172 3322 
L 1269 3322 
L 1269 1388 
Q 1269 781 1417 556 
Q 1566 331 1947 331 
Q 2347 331 2556 625 
Q 2766 919 2766 1478 
L 2766 2988 
L 2266 2988 
L 2266 3322 
z
" transform="scale(0.015625)"/>
      <path id="DejaVuSerif-70" d="M 1313 1825 
L 1313 1497 
Q 1313 897 1542 583 
Q 1772 269 2209 269 
Q 2650 269 2876 622 
Q 3103 975 3103 1663 
Q 3103 2353 2876 2703 
Q 2650 3053 2209 3053 
Q 1772 3053 1542 2737 
Q 1313 2422 1313 1825 
z
M 738 2988 
L 184 2988 
L 184 3322 
L 1313 3322 
L 1313 2803 
Q 1481 3116 1742 3264 
Q 2003 3413 2388 3413 
Q 3000 3413 3387 2928 
Q 3775 2444 3775 1663 
Q 3775 881 3387 395 
Q 3000 -91 2388 -91 
Q 2003 -91 1742 57 
Q 1481 206 1313 519 
L 1313 -997 
L 1856 -997 
L 1856 -1331 
L 184 -1331 
L 184 -997 
L 738 -997 
L 738 2988 
z
" transform="scale(0.015625)"/>
      <path id="DejaVuSerif-20" transform="scale(0.015625)"/>
      <path id="DejaVuSerif-6b" d="M 1831 0 
L 219 0 
L 219 331 
L 738 331 
L 738 4531 
L 184 4531 
L 184 4863 
L 1313 4863 
L 1313 1697 
L 2713 2988 
L 2234 2988 
L 2234 3322 
L 3738 3322 
L 3738 2988 
L 3169 2988 
L 2181 2075 
L 3444 331 
L 3922 331 
L 3922 0 
L 2284 0 
L 2284 331 
L 2759 331 
L 1766 1697 
L 1313 1275 
L 1313 331 
L 1831 331 
L 1831 0 
z
" transform="scale(0.015625)"/>
      <path id="DejaVuSerif-64" d="M 3359 331 
L 3909 331 
L 3909 0 
L 2784 0 
L 2784 519 
Q 2616 206 2355 57 
Q 2094 -91 1709 -91 
Q 1097 -91 708 395 
Q 319 881 319 1663 
Q 319 2444 706 2928 
Q 1094 3413 1709 3413 
Q 2094 3413 2355 3264 
Q 2616 3116 2784 2803 
L 2784 4531 
L 2241 4531 
L 2241 4863 
L 3359 4863 
L 3359 331 
z
M 2784 1497 
L 2784 1825 
Q 2784 2422 2554 2737 
Q 2325 3053 1888 3053 
Q 1444 3053 1217 2703 
Q 991 2353 991 1663 
Q 991 975 1217 622 
Q 1444 269 1888 269 
Q 2325 269 2554 583 
Q 2784 897 2784 1497 
z
" transform="scale(0.015625)"/>
      <path id="DejaVuSans-Oblique-61" d="M 3438 1997 
L 3047 0 
L 2472 0 
L 2578 531 
Q 2325 219 2001 64 
Q 1678 -91 1281 -91 
Q 834 -91 548 182 
Q 263 456 263 884 
Q 263 1497 752 1853 
Q 1241 2209 2100 2209 
L 2900 2209 
L 2931 2363 
Q 2938 2388 2941 2417 
Q 2944 2447 2944 2509 
Q 2944 2788 2717 2942 
Q 2491 3097 2081 3097 
Q 1800 3097 1504 3025 
Q 1209 2953 897 2809 
L 997 3341 
Q 1322 3463 1633 3523 
Q 1944 3584 2234 3584 
Q 2853 3584 3176 3315 
Q 3500 3047 3500 2534 
Q 3500 2431 3484 2292 
Q 3469 2153 3438 1997 
z
M 2816 1759 
L 2241 1759 
Q 1534 1759 1195 1570 
Q 856 1381 856 984 
Q 856 709 1029 553 
Q 1203 397 1509 397 
Q 1978 397 2328 733 
Q 2678 1069 2791 1631 
L 2816 1759 
z
" transform="scale(0.015625)"/>
      <path id="DejaVuSans-3d" d="M 678 2906 
L 4684 2906 
L 4684 2381 
L 678 2381 
L 678 2906 
z
M 678 1631 
L 4684 1631 
L 4684 1100 
L 678 1100 
L 678 1631 
z
" transform="scale(0.015625)"/>
      <path id="DejaVuSans-31" d="M 794 531 
L 1825 531 
L 1825 4091 
L 703 3866 
L 703 4441 
L 1819 4666 
L 2450 4666 
L 2450 531 
L 3481 531 
L 3481 0 
L 794 0 
L 794 531 
z
" transform="scale(0.015625)"/>
      <path id="DejaVuSans-2e" d="M 684 794 
L 1344 794 
L 1344 0 
L 684 0 
L 684 794 
z
" transform="scale(0.015625)"/>
      <path id="DejaVuSans-30" d="M 2034 4250 
Q 1547 4250 1301 3770 
Q 1056 3291 1056 2328 
Q 1056 1369 1301 889 
Q 1547 409 2034 409 
Q 2525 409 2770 889 
Q 3016 1369 3016 2328 
Q 3016 3291 2770 3770 
Q 2525 4250 2034 4250 
z
M 2034 4750 
Q 2819 4750 3233 4129 
Q 3647 3509 3647 2328 
Q 3647 1150 3233 529 
Q 2819 -91 2034 -91 
Q 1250 -91 836 529 
Q 422 1150 422 2328 
Q 422 3509 836 4129 
Q 1250 4750 2034 4750 
z
" transform="scale(0.015625)"/>
      <path id="DejaVuSerif-2f" d="M 1656 4666 
L 2156 4666 
L 500 -594 
L 0 -594 
L 1656 4666 
z
" transform="scale(0.015625)"/>
      <path id="DejaVuSerif-50" d="M 1581 2375 
L 2406 2375 
Q 2872 2375 3115 2626 
Q 3359 2878 3359 3353 
Q 3359 3831 3115 4081 
Q 2872 4331 2406 4331 
L 1581 4331 
L 1581 2375 
z
M 353 0 
L 353 331 
L 947 331 
L 947 4331 
L 353 4331 
L 353 4666 
L 2559 4666 
Q 3259 4666 3668 4311 
Q 4078 3956 4078 3353 
Q 4078 2753 3668 2397 
Q 3259 2041 2559 2041 
L 1581 2041 
L 1581 331 
L 2303 331 
L 2303 0 
L 353 0 
z
" transform="scale(0.015625)"/>
      <path id="DejaVuSerif-72" d="M 3059 3328 
L 3059 2497 
L 2728 2497 
Q 2713 2744 2591 2866 
Q 2469 2988 2234 2988 
Q 1809 2988 1582 2694 
Q 1356 2400 1356 1850 
L 1356 331 
L 2022 331 
L 2022 0 
L 263 0 
L 263 331 
L 781 331 
L 781 2994 
L 231 2994 
L 231 3322 
L 1356 3322 
L 1356 2731 
Q 1525 3078 1790 3245 
Q 2056 3413 2438 3413 
Q 2578 3413 2733 3391 
Q 2888 3369 3059 3328 
z
" transform="scale(0.015625)"/>
      <path id="DejaVuSerif-6f" d="M 1925 219 
Q 2388 219 2623 584 
Q 2859 950 2859 1663 
Q 2859 2375 2623 2739 
Q 2388 3103 1925 3103 
Q 1463 3103 1227 2739 
Q 991 2375 991 1663 
Q 991 950 1228 584 
Q 1466 219 1925 219 
z
M 1925 -91 
Q 1200 -91 759 389 
Q 319 869 319 1663 
Q 319 2456 758 2934 
Q 1197 3413 1925 3413 
Q 2653 3413 3092 2934 
Q 3531 2456 3531 1663 
Q 3531 869 3092 389 
Q 2653 -91 1925 -91 
z
" transform="scale(0.015625)"/>
     </defs>
     <use xlink:href="#DejaVuSerif-4f" transform="translate(0 0.015625)"/>
     <use xlink:href="#DejaVuSerif-75" transform="translate(81.982422 0.015625)"/>
     <use xlink:href="#DejaVuSerif-74" transform="translate(146.386719 0.015625)"/>
     <use xlink:href="#DejaVuSerif-70" transform="translate(186.572266 0.015625)"/>
     <use xlink:href="#DejaVuSerif-75" transform="translate(250.585938 0.015625)"/>
     <use xlink:href="#DejaVuSerif-74" transform="translate(314.990234 0.015625)"/>
     <use xlink:href="#DejaVuSerif-20" transform="translate(355.175781 0.015625)"/>
     <use xlink:href="#DejaVuSerif-73" transform="translate(386.962891 0.015625)"/>
     <use xlink:href="#DejaVuSerif-70" transform="translate(438.28125 0.015625)"/>
     <use xlink:href="#DejaVuSerif-69" transform="translate(502.294922 0.015625)"/>
     <use xlink:href="#DejaVuSerif-6b" transform="translate(534.277344 0.015625)"/>
     <use xlink:href="#DejaVuSerif-65" transform="translate(594.873047 0.015625)"/>
     <use xlink:href="#DejaVuSerif-20" transform="translate(654.052734 0.015625)"/>
     <use xlink:href="#DejaVuSerif-64" transform="translate(685.839844 0.015625)"/>
     <use xlink:href="#DejaVuSerif-65" transform="translate(749.853516 0.015625)"/>
     <use xlink:href="#DejaVuSerif-6e" transform="translate(809.033203 0.015625)"/>
     <use xlink:href="#DejaVuSerif-73" transform="translate(873.4375 0.015625)"/>
     <use xlink:href="#DejaVuSerif-69" transform="translate(924.755859 0.015625)"/>
     <use xlink:href="#DejaVuSerif-74" transform="translate(956.738281 0.015625)"/>
     <use xlink:href="#DejaVuSerif-79" transform="translate(996.923828 0.015625)"/>
     <use xlink:href="#DejaVuSerif-20" transform="translate(1053.417969 0.015625)"/>
     <use xlink:href="#DejaVuSans-Oblique-61" transform="translate(1085.205078 0.015625)"/>
     <use xlink:href="#DejaVuSans-3d" transform="translate(1165.966797 0.015625)"/>
     <use xlink:href="#DejaVuSans-31" transform="translate(1269.238281 0.015625)"/>
     <use xlink:href="#DejaVuSans-2e" transform="translate(1332.861328 0.015625)"/>
     <use xlink:href="#DejaVuSans-30" transform="translate(1364.648438 0.015625)"/>
     <use xlink:href="#DejaVuSerif-20" transform="translate(1428.271484 0.015625)"/>
     <use xlink:href="#DejaVuSerif-2f" transform="translate(1460.058594 0.015625)"/>
     <use xlink:href="#DejaVuSerif-20" transform="translate(1493.75 0.015625)"/>
     <use xlink:href="#DejaVuSerif-50" transform="translate(1525.537109 0.015625)"/>
     <use xlink:href="#DejaVuSerif-72" transform="translate(1592.822266 0.015625)"/>
     <use xlink:href="#DejaVuSerif-6f" transform="translate(1640.625 0.015625)"/>
     <use xlink:href="#DejaVuSerif-70" transform="translate(1700.830078 0.015625)"/>
     <use xlink:href="#DejaVuSerif-6f" transform="translate(1764.84375 0.015625)"/>
     <use xlink:href="#DejaVuSerif-73" transform="translate(1825.048828 0.015625)"/>
     <use xlink:href="#DejaVuSerif-65" transform="translate(1876.367188 0.015625)"/>
     <use xlink:href="#DejaVuSerif-64" transform="translate(1935.546875 0.015625)"/>
    </g>
   </g>
   <g id="legend_1">
    <g id="patch_7">
     <path d="M 126.717187 21.431998 
L 162.717187 21.431998 
L 162.717187 8.831998 
L 126.717187 8.831998 
z
" style="fill: #440154"/>
    </g>
    <g id="text_5">
     <!-- #1 -->
     <g style="fill: #262626" transform="translate(177.117187 21.431998) scale(0.18 -0.18)">
      <defs>
       <path id="DejaVuSerif-23" d="M 3256 2816 
L 2375 2816 
L 2113 1772 
L 3003 1772 
L 3256 2816 
z
M 2816 4594 
L 2497 3297 
L 3378 3297 
L 3700 4594 
L 4238 4594 
L 3909 3297 
L 4872 3297 
L 4872 2816 
L 3788 2816 
L 3531 1772 
L 4513 1772 
L 4513 1294 
L 3413 1294 
L 3091 0 
L 2553 0 
L 2881 1294 
L 1997 1294 
L 1672 0 
L 1141 0 
L 1459 1294 
L 494 1294 
L 494 1772 
L 1581 1772 
L 1838 2816 
L 850 2816 
L 850 3297 
L 1959 3297 
L 2284 4594 
L 2816 4594 
z
" transform="scale(0.015625)"/>
      </defs>
      <use xlink:href="#DejaVuSerif-23"/>
      <use xlink:href="#DejaVuSerif-31" x="83.789062"/>
     </g>
    </g>
    <g id="patch_8">
     <path d="M 126.717187 47.852623 
L 162.717187 47.852623 
L 162.717187 35.252623 
L 126.717187 35.252623 
z
" style="fill: #482173"/>
    </g>
    <g id="text_6">
     <!-- #2 -->
     <g style="fill: #262626" transform="translate(177.117187 47.852623) scale(0.18 -0.18)">
      <defs>
       <path id="DejaVuSerif-32" d="M 819 3553 
L 469 3553 
L 469 4384 
Q 803 4563 1142 4656 
Q 1481 4750 1806 4750 
Q 2534 4750 2956 4397 
Q 3378 4044 3378 3438 
Q 3378 2753 2422 1800 
Q 2347 1728 2309 1691 
L 1131 513 
L 3078 513 
L 3078 1088 
L 3444 1088 
L 3444 0 
L 434 0 
L 434 341 
L 1850 1753 
Q 2319 2222 2519 2614 
Q 2719 3006 2719 3438 
Q 2719 3909 2473 4175 
Q 2228 4441 1797 4441 
Q 1350 4441 1106 4219 
Q 863 3997 819 3553 
z
" transform="scale(0.015625)"/>
      </defs>
      <use xlink:href="#DejaVuSerif-23"/>
      <use xlink:href="#DejaVuSerif-32" x="83.789062"/>
     </g>
    </g>
    <g id="patch_9">
     <path d="M 239.653125 21.431998 
L 275.653125 21.431998 
L 275.653125 8.831998 
L 239.653125 8.831998 
z
" style="fill: #433e85"/>
    </g>
    <g id="text_7">
     <!-- #3 -->
     <g style="fill: #262626" transform="translate(290.053125 21.431998) scale(0.18 -0.18)">
      <defs>
       <path id="DejaVuSerif-33" d="M 622 4469 
Q 988 4606 1323 4678 
Q 1659 4750 1953 4750 
Q 2638 4750 3022 4454 
Q 3406 4159 3406 3634 
Q 3406 3213 3140 2930 
Q 2875 2647 2388 2547 
Q 2963 2466 3280 2130 
Q 3597 1794 3597 1259 
Q 3597 606 3158 257 
Q 2719 -91 1894 -91 
Q 1528 -91 1179 -12 
Q 831 66 488 225 
L 488 1131 
L 838 1131 
Q 869 681 1141 450 
Q 1413 219 1906 219 
Q 2384 219 2661 495 
Q 2938 772 2938 1253 
Q 2938 1803 2653 2086 
Q 2369 2369 1819 2369 
L 1522 2369 
L 1522 2688 
L 1678 2688 
Q 2225 2688 2498 2914 
Q 2772 3141 2772 3597 
Q 2772 4006 2547 4223 
Q 2322 4441 1900 4441 
Q 1478 4441 1245 4241 
Q 1013 4041 972 3647 
L 622 3647 
L 622 4469 
z
" transform="scale(0.015625)"/>
      </defs>
      <use xlink:href="#DejaVuSerif-23"/>
      <use xlink:href="#DejaVuSerif-33" x="83.789062"/>
     </g>
    </g>
    <g id="patch_10">
     <path d="M 239.653125 47.852623 
L 275.653125 47.852623 
L 275.653125 35.252623 
L 239.653125 35.252623 
z
" style="fill: #38588c"/>
    </g>
    <g id="text_8">
     <!-- #4 -->
     <g style="fill: #262626" transform="translate(290.053125 47.852623) scale(0.18 -0.18)">
      <defs>
       <path id="DejaVuSerif-34" d="M 2234 1581 
L 2234 4063 
L 641 1581 
L 2234 1581 
z
M 3609 0 
L 1484 0 
L 1484 331 
L 2234 331 
L 2234 1247 
L 197 1247 
L 197 1588 
L 2241 4750 
L 2859 4750 
L 2859 1581 
L 3750 1581 
L 3750 1247 
L 2859 1247 
L 2859 331 
L 3609 331 
L 3609 0 
z
" transform="scale(0.015625)"/>
      </defs>
      <use xlink:href="#DejaVuSerif-23"/>
      <use xlink:href="#DejaVuSerif-34" x="83.789062"/>
     </g>
    </g>
    <g id="patch_11">
     <path d="M 352.589062 21.431998 
L 388.589062 21.431998 
L 388.589062 8.831998 
L 352.589062 8.831998 
z
" style="fill: #2d708e"/>
    </g>
    <g id="text_9">
     <!-- #5 -->
     <g style="fill: #262626" transform="translate(402.989062 21.431998) scale(0.18 -0.18)">
      <defs>
       <path id="DejaVuSerif-35" d="M 3219 4666 
L 3219 4153 
L 1081 4153 
L 1081 2816 
Q 1244 2928 1461 2984 
Q 1678 3041 1947 3041 
Q 2703 3041 3140 2622 
Q 3578 2203 3578 1478 
Q 3578 738 3136 323 
Q 2694 -91 1894 -91 
Q 1572 -91 1234 -12 
Q 897 66 544 225 
L 544 1131 
L 897 1131 
Q 925 688 1179 453 
Q 1434 219 1894 219 
Q 2388 219 2653 544 
Q 2919 869 2919 1478 
Q 2919 2084 2655 2407 
Q 2391 2731 1894 2731 
Q 1613 2731 1398 2631 
Q 1184 2531 1019 2322 
L 750 2322 
L 750 4666 
L 3219 4666 
z
" transform="scale(0.015625)"/>
      </defs>
      <use xlink:href="#DejaVuSerif-23"/>
      <use xlink:href="#DejaVuSerif-35" x="83.789062"/>
     </g>
    </g>
    <g id="patch_12">
     <path d="M 352.589062 47.852623 
L 388.589062 47.852623 
L 388.589062 35.252623 
L 352.589062 35.252623 
z
" style="fill: #25858e"/>
    </g>
    <g id="text_10">
     <!-- #6 -->
     <g style="fill: #262626" transform="translate(402.989062 47.852623) scale(0.18 -0.18)">
      <defs>
       <path id="DejaVuSerif-36" d="M 2094 219 
Q 2534 219 2771 542 
Q 3009 866 3009 1472 
Q 3009 2078 2771 2401 
Q 2534 2725 2094 2725 
Q 1647 2725 1412 2412 
Q 1178 2100 1178 1509 
Q 1178 888 1415 553 
Q 1653 219 2094 219 
z
M 1075 2569 
Q 1288 2803 1556 2918 
Q 1825 3034 2163 3034 
Q 2859 3034 3264 2615 
Q 3669 2197 3669 1472 
Q 3669 763 3233 336 
Q 2797 -91 2069 -91 
Q 1278 -91 853 498 
Q 428 1088 428 2181 
Q 428 3406 931 4078 
Q 1434 4750 2350 4750 
Q 2597 4750 2869 4703 
Q 3141 4656 3425 4563 
L 3425 3794 
L 3072 3794 
Q 3034 4109 2831 4275 
Q 2628 4441 2284 4441 
Q 1678 4441 1381 3981 
Q 1084 3522 1075 2569 
z
" transform="scale(0.015625)"/>
      </defs>
      <use xlink:href="#DejaVuSerif-23"/>
      <use xlink:href="#DejaVuSerif-36" x="83.789062"/>
     </g>
    </g>
    <g id="patch_13">
     <path d="M 465.525 21.431998 
L 501.525 21.431998 
L 501.525 8.831998 
L 465.525 8.831998 
z
" style="fill: #1e9b8a"/>
    </g>
    <g id="text_11">
     <!-- #7 -->
     <g style="fill: #262626" transform="translate(515.925 21.431998) scale(0.18 -0.18)">
      <defs>
       <path id="DejaVuSerif-37" d="M 3609 4347 
L 1784 0 
L 1319 0 
L 3059 4153 
L 903 4153 
L 903 3578 
L 538 3578 
L 538 4666 
L 3609 4666 
L 3609 4347 
z
" transform="scale(0.015625)"/>
      </defs>
      <use xlink:href="#DejaVuSerif-23"/>
      <use xlink:href="#DejaVuSerif-37" x="83.789062"/>
     </g>
    </g>
    <g id="patch_14">
     <path d="M 465.525 47.852623 
L 501.525 47.852623 
L 501.525 35.252623 
L 465.525 35.252623 
z
" style="fill: #2ab07f"/>
    </g>
    <g id="text_12">
     <!-- #8 -->
     <g style="fill: #262626" transform="translate(515.925 47.852623) scale(0.18 -0.18)">
      <defs>
       <path id="DejaVuSerif-38" d="M 2981 1275 
Q 2981 1775 2732 2051 
Q 2484 2328 2034 2328 
Q 1584 2328 1336 2051 
Q 1088 1775 1088 1275 
Q 1088 772 1336 495 
Q 1584 219 2034 219 
Q 2484 219 2732 495 
Q 2981 772 2981 1275 
z
M 2853 3541 
Q 2853 3966 2637 4203 
Q 2422 4441 2034 4441 
Q 1650 4441 1433 4203 
Q 1216 3966 1216 3541 
Q 1216 3113 1433 2875 
Q 1650 2638 2034 2638 
Q 2422 2638 2637 2875 
Q 2853 3113 2853 3541 
z
M 2516 2484 
Q 3047 2413 3344 2092 
Q 3641 1772 3641 1275 
Q 3641 619 3225 264 
Q 2809 -91 2034 -91 
Q 1263 -91 845 264 
Q 428 619 428 1275 
Q 428 1772 725 2092 
Q 1022 2413 1556 2484 
Q 1084 2569 832 2842 
Q 581 3116 581 3541 
Q 581 4103 968 4426 
Q 1356 4750 2034 4750 
Q 2713 4750 3100 4426 
Q 3488 4103 3488 3541 
Q 3488 3116 3236 2842 
Q 2984 2569 2516 2484 
z
" transform="scale(0.015625)"/>
      </defs>
      <use xlink:href="#DejaVuSerif-23"/>
      <use xlink:href="#DejaVuSerif-38" x="83.789062"/>
     </g>
    </g>
    <g id="patch_15">
     <path d="M 578.460937 21.431998 
L 614.460937 21.431998 
L 614.460937 8.831998 
L 578.460937 8.831998 
z
" style="fill: #52c569"/>
    </g>
    <g id="text_13">
     <!-- #9 -->
     <g style="fill: #262626" transform="translate(628.860937 21.431998) scale(0.18 -0.18)">
      <defs>
       <path id="DejaVuSerif-39" d="M 2994 2091 
Q 2784 1856 2512 1740 
Q 2241 1625 1900 1625 
Q 1206 1625 804 2044 
Q 403 2463 403 3188 
Q 403 3897 839 4323 
Q 1275 4750 2003 4750 
Q 2794 4750 3217 4161 
Q 3641 3572 3641 2478 
Q 3641 1253 3137 581 
Q 2634 -91 1722 -91 
Q 1475 -91 1203 -44 
Q 931 3 647 97 
L 647 872 
L 997 872 
Q 1038 556 1241 387 
Q 1444 219 1784 219 
Q 2391 219 2687 676 
Q 2984 1134 2994 2091 
z
M 1978 4441 
Q 1534 4441 1298 4117 
Q 1063 3794 1063 3188 
Q 1063 2581 1298 2256 
Q 1534 1931 1978 1931 
Q 2422 1931 2658 2245 
Q 2894 2559 2894 3150 
Q 2894 3772 2656 4106 
Q 2419 4441 1978 4441 
z
" transform="scale(0.015625)"/>
      </defs>
      <use xlink:href="#DejaVuSerif-23"/>
      <use xlink:href="#DejaVuSerif-39" x="83.789062"/>
     </g>
    </g>
    <g id="patch_16">
     <path d="M 578.460937 47.852623 
L 614.460937 47.852623 
L 614.460937 35.252623 
L 578.460937 35.252623 
z
" style="fill: #86d549"/>
    </g>
    <g id="text_14">
     <!-- #10 -->
     <g style="fill: #262626" transform="translate(628.860937 47.852623) scale(0.18 -0.18)">
      <use xlink:href="#DejaVuSerif-23"/>
      <use xlink:href="#DejaVuSerif-31" x="83.789062"/>
      <use xlink:href="#DejaVuSerif-30" x="147.412109"/>
     </g>
    </g>
    <g id="patch_17">
     <path d="M 702.849375 21.431998 
L 738.849375 21.431998 
L 738.849375 8.831998 
L 702.849375 8.831998 
z
" style="fill: #c2df23"/>
    </g>
    <g id="text_15">
     <!-- #11 -->
     <g style="fill: #262626" transform="translate(753.249375 21.431998) scale(0.18 -0.18)">
      <use xlink:href="#DejaVuSerif-23"/>
      <use xlink:href="#DejaVuSerif-31" x="83.789062"/>
      <use xlink:href="#DejaVuSerif-31" x="147.412109"/>
     </g>
    </g>
   </g>
   <g id="legend_2">
    <g id="patch_18">
     <path d="M 126.717187 21.431998 
L 162.717187 21.431998 
L 162.717187 8.831998 
L 126.717187 8.831998 
z
" style="fill: #440154"/>
    </g>
    <g id="text_16">
     <!-- #1 -->
     <g style="fill: #262626" transform="translate(177.117187 21.431998) scale(0.18 -0.18)">
      <use xlink:href="#DejaVuSerif-23"/>
      <use xlink:href="#DejaVuSerif-31" x="83.789062"/>
     </g>
    </g>
    <g id="patch_19">
     <path d="M 126.717187 47.852623 
L 162.717187 47.852623 
L 162.717187 35.252623 
L 126.717187 35.252623 
z
" style="fill: #482173"/>
    </g>
    <g id="text_17">
     <!-- #2 -->
     <g style="fill: #262626" transform="translate(177.117187 47.852623) scale(0.18 -0.18)">
      <use xlink:href="#DejaVuSerif-23"/>
      <use xlink:href="#DejaVuSerif-32" x="83.789062"/>
     </g>
    </g>
    <g id="patch_20">
     <path d="M 239.653125 21.431998 
L 275.653125 21.431998 
L 275.653125 8.831998 
L 239.653125 8.831998 
z
" style="fill: #433e85"/>
    </g>
    <g id="text_18">
     <!-- #3 -->
     <g style="fill: #262626" transform="translate(290.053125 21.431998) scale(0.18 -0.18)">
      <use xlink:href="#DejaVuSerif-23"/>
      <use xlink:href="#DejaVuSerif-33" x="83.789062"/>
     </g>
    </g>
    <g id="patch_21">
     <path d="M 239.653125 47.852623 
L 275.653125 47.852623 
L 275.653125 35.252623 
L 239.653125 35.252623 
z
" style="fill: #38588c"/>
    </g>
    <g id="text_19">
     <!-- #4 -->
     <g style="fill: #262626" transform="translate(290.053125 47.852623) scale(0.18 -0.18)">
      <use xlink:href="#DejaVuSerif-23"/>
      <use xlink:href="#DejaVuSerif-34" x="83.789062"/>
     </g>
    </g>
    <g id="patch_22">
     <path d="M 352.589062 21.431998 
L 388.589062 21.431998 
L 388.589062 8.831998 
L 352.589062 8.831998 
z
" style="fill: #2d708e"/>
    </g>
    <g id="text_20">
     <!-- #5 -->
     <g style="fill: #262626" transform="translate(402.989062 21.431998) scale(0.18 -0.18)">
      <use xlink:href="#DejaVuSerif-23"/>
      <use xlink:href="#DejaVuSerif-35" x="83.789062"/>
     </g>
    </g>
    <g id="patch_23">
     <path d="M 352.589062 47.852623 
L 388.589062 47.852623 
L 388.589062 35.252623 
L 352.589062 35.252623 
z
" style="fill: #25858e"/>
    </g>
    <g id="text_21">
     <!-- #6 -->
     <g style="fill: #262626" transform="translate(402.989062 47.852623) scale(0.18 -0.18)">
      <use xlink:href="#DejaVuSerif-23"/>
      <use xlink:href="#DejaVuSerif-36" x="83.789062"/>
     </g>
    </g>
    <g id="patch_24">
     <path d="M 465.525 21.431998 
L 501.525 21.431998 
L 501.525 8.831998 
L 465.525 8.831998 
z
" style="fill: #1e9b8a"/>
    </g>
    <g id="text_22">
     <!-- #7 -->
     <g style="fill: #262626" transform="translate(515.925 21.431998) scale(0.18 -0.18)">
      <use xlink:href="#DejaVuSerif-23"/>
      <use xlink:href="#DejaVuSerif-37" x="83.789062"/>
     </g>
    </g>
    <g id="patch_25">
     <path d="M 465.525 47.852623 
L 501.525 47.852623 
L 501.525 35.252623 
L 465.525 35.252623 
z
" style="fill: #2ab07f"/>
    </g>
    <g id="text_23">
     <!-- #8 -->
     <g style="fill: #262626" transform="translate(515.925 47.852623) scale(0.18 -0.18)">
      <use xlink:href="#DejaVuSerif-23"/>
      <use xlink:href="#DejaVuSerif-38" x="83.789062"/>
     </g>
    </g>
    <g id="patch_26">
     <path d="M 578.460937 21.431998 
L 614.460937 21.431998 
L 614.460937 8.831998 
L 578.460937 8.831998 
z
" style="fill: #52c569"/>
    </g>
    <g id="text_24">
     <!-- #9 -->
     <g style="fill: #262626" transform="translate(628.860937 21.431998) scale(0.18 -0.18)">
      <use xlink:href="#DejaVuSerif-23"/>
      <use xlink:href="#DejaVuSerif-39" x="83.789062"/>
     </g>
    </g>
    <g id="patch_27">
     <path d="M 578.460937 47.852623 
L 614.460937 47.852623 
L 614.460937 35.252623 
L 578.460937 35.252623 
z
" style="fill: #86d549"/>
    </g>
    <g id="text_25">
     <!-- #10 -->
     <g style="fill: #262626" transform="translate(628.860937 47.852623) scale(0.18 -0.18)">
      <use xlink:href="#DejaVuSerif-23"/>
      <use xlink:href="#DejaVuSerif-31" x="83.789062"/>
      <use xlink:href="#DejaVuSerif-30" x="147.412109"/>
     </g>
    </g>
    <g id="patch_28">
     <path d="M 702.849375 21.431998 
L 738.849375 21.431998 
L 738.849375 8.831998 
L 702.849375 8.831998 
z
" style="fill: #c2df23"/>
    </g>
    <g id="text_26">
     <!-- #11 -->
     <g style="fill: #262626" transform="translate(753.249375 21.431998) scale(0.18 -0.18)">
      <use xlink:href="#DejaVuSerif-23"/>
      <use xlink:href="#DejaVuSerif-31" x="83.789062"/>
      <use xlink:href="#DejaVuSerif-31" x="147.412109"/>
     </g>
    </g>
   </g>
  </g>
  <g id="axes_2">
   <g id="patch_29">
    <path d="M 82.89 361.62 
L 835.065 361.62 
L 835.065 243.063513 
L 82.89 243.063513 
z
" style="fill: #eaeaf2"/>
   </g>
   <g id="matplotlib.axis_3">
    <g id="xtick_10">
     <g id="line2d_23">
      <path d="M 112.977 361.62 
L 112.977 243.063513 
" clip-path="url(#pc937d2e95b)" style="fill: none; stroke: #ffffff; stroke-linecap: round"/>
     </g>
     <g id="text_27">
      <!-- 0.2 -->
      <g style="fill: #262626" transform="translate(97.073875 386.316875) scale(0.2 -0.2)">
       <defs>
        <path id="DejaVuSerif-2e" d="M 603 325 
Q 603 500 722 622 
Q 841 744 1019 744 
Q 1191 744 1312 622 
Q 1434 500 1434 325 
Q 1434 153 1312 31 
Q 1191 -91 1019 -91 
Q 841 -91 722 29 
Q 603 150 603 325 
z
" transform="scale(0.015625)"/>
       </defs>
       <use xlink:href="#DejaVuSerif-30"/>
       <use xlink:href="#DejaVuSerif-2e" x="63.623047"/>
       <use xlink:href="#DejaVuSerif-32" x="95.410156"/>
      </g>
     </g>
    </g>
    <g id="xtick_11">
     <g id="line2d_24">
      <path d="M 203.238 361.62 
L 203.238 243.063513 
" clip-path="url(#pc937d2e95b)" style="fill: none; stroke: #ffffff; stroke-linecap: round"/>
     </g>
     <g id="text_28">
      <!-- 0.3 -->
      <g style="fill: #262626" transform="translate(187.334875 386.316875) scale(0.2 -0.2)">
       <use xlink:href="#DejaVuSerif-30"/>
       <use xlink:href="#DejaVuSerif-2e" x="63.623047"/>
       <use xlink:href="#DejaVuSerif-33" x="95.410156"/>
      </g>
     </g>
    </g>
    <g id="xtick_12">
     <g id="line2d_25">
      <path d="M 293.499 361.62 
L 293.499 243.063513 
" clip-path="url(#pc937d2e95b)" style="fill: none; stroke: #ffffff; stroke-linecap: round"/>
     </g>
     <g id="text_29">
      <!-- 0.4 -->
      <g style="fill: #262626" transform="translate(277.595875 386.316875) scale(0.2 -0.2)">
       <use xlink:href="#DejaVuSerif-30"/>
       <use xlink:href="#DejaVuSerif-2e" x="63.623047"/>
       <use xlink:href="#DejaVuSerif-34" x="95.410156"/>
      </g>
     </g>
    </g>
    <g id="xtick_13">
     <g id="line2d_26">
      <path d="M 383.76 361.62 
L 383.76 243.063513 
" clip-path="url(#pc937d2e95b)" style="fill: none; stroke: #ffffff; stroke-linecap: round"/>
     </g>
     <g id="text_30">
      <!-- 0.5 -->
      <g style="fill: #262626" transform="translate(367.856875 386.316875) scale(0.2 -0.2)">
       <use xlink:href="#DejaVuSerif-30"/>
       <use xlink:href="#DejaVuSerif-2e" x="63.623047"/>
       <use xlink:href="#DejaVuSerif-35" x="95.410156"/>
      </g>
     </g>
    </g>
    <g id="xtick_14">
     <g id="line2d_27">
      <path d="M 474.021 361.62 
L 474.021 243.063513 
" clip-path="url(#pc937d2e95b)" style="fill: none; stroke: #ffffff; stroke-linecap: round"/>
     </g>
     <g id="text_31">
      <!-- 0.6 -->
      <g style="fill: #262626" transform="translate(458.117875 386.316875) scale(0.2 -0.2)">
       <use xlink:href="#DejaVuSerif-30"/>
       <use xlink:href="#DejaVuSerif-2e" x="63.623047"/>
       <use xlink:href="#DejaVuSerif-36" x="95.410156"/>
      </g>
     </g>
    </g>
    <g id="xtick_15">
     <g id="line2d_28">
      <path d="M 564.282 361.62 
L 564.282 243.063513 
" clip-path="url(#pc937d2e95b)" style="fill: none; stroke: #ffffff; stroke-linecap: round"/>
     </g>
     <g id="text_32">
      <!-- 0.7 -->
      <g style="fill: #262626" transform="translate(548.378875 386.316875) scale(0.2 -0.2)">
       <use xlink:href="#DejaVuSerif-30"/>
       <use xlink:href="#DejaVuSerif-2e" x="63.623047"/>
       <use xlink:href="#DejaVuSerif-37" x="95.410156"/>
      </g>
     </g>
    </g>
    <g id="xtick_16">
     <g id="line2d_29">
      <path d="M 654.543 361.62 
L 654.543 243.063513 
" clip-path="url(#pc937d2e95b)" style="fill: none; stroke: #ffffff; stroke-linecap: round"/>
     </g>
     <g id="text_33">
      <!-- 0.8 -->
      <g style="fill: #262626" transform="translate(638.639875 386.316875) scale(0.2 -0.2)">
       <use xlink:href="#DejaVuSerif-30"/>
       <use xlink:href="#DejaVuSerif-2e" x="63.623047"/>
       <use xlink:href="#DejaVuSerif-38" x="95.410156"/>
      </g>
     </g>
    </g>
    <g id="xtick_17">
     <g id="line2d_30">
      <path d="M 744.804 361.62 
L 744.804 243.063513 
" clip-path="url(#pc937d2e95b)" style="fill: none; stroke: #ffffff; stroke-linecap: round"/>
     </g>
     <g id="text_34">
      <!-- 0.9 -->
      <g style="fill: #262626" transform="translate(728.900875 386.316875) scale(0.2 -0.2)">
       <use xlink:href="#DejaVuSerif-30"/>
       <use xlink:href="#DejaVuSerif-2e" x="63.623047"/>
       <use xlink:href="#DejaVuSerif-39" x="95.410156"/>
      </g>
     </g>
    </g>
    <g id="xtick_18">
     <g id="line2d_31">
      <path d="M 835.065 361.62 
L 835.065 243.063513 
" clip-path="url(#pc937d2e95b)" style="fill: none; stroke: #ffffff; stroke-linecap: round"/>
     </g>
     <g id="text_35">
      <!-- 1.0 -->
      <g style="fill: #262626" transform="translate(819.161875 386.316875) scale(0.2 -0.2)">
       <use xlink:href="#DejaVuSerif-31"/>
       <use xlink:href="#DejaVuSerif-2e" x="63.623047"/>
       <use xlink:href="#DejaVuSerif-30" x="95.410156"/>
      </g>
     </g>
    </g>
    <g id="text_36">
     <!-- Time -->
     <g style="fill: #262626" transform="translate(426.126094 414.232187) scale(0.26 -0.26)">
      <defs>
       <path id="DejaVuSerif-54" d="M 1222 0 
L 1222 331 
L 1819 331 
L 1819 4294 
L 447 4294 
L 447 3566 
L 63 3566 
L 63 4666 
L 4206 4666 
L 4206 3566 
L 3822 3566 
L 3822 4294 
L 2450 4294 
L 2450 331 
L 3047 331 
L 3047 0 
L 1222 0 
z
" transform="scale(0.015625)"/>
       <path id="DejaVuSerif-6d" d="M 3316 2675 
Q 3481 3041 3739 3227 
Q 3997 3413 4341 3413 
Q 4863 3413 5119 3089 
Q 5375 2766 5375 2113 
L 5375 331 
L 5894 331 
L 5894 0 
L 4300 0 
L 4300 331 
L 4800 331 
L 4800 2047 
Q 4800 2556 4650 2772 
Q 4500 2988 4153 2988 
Q 3769 2988 3567 2697 
Q 3366 2406 3366 1850 
L 3366 331 
L 3866 331 
L 3866 0 
L 2291 0 
L 2291 331 
L 2791 331 
L 2791 2069 
Q 2791 2566 2641 2777 
Q 2491 2988 2144 2988 
Q 1759 2988 1557 2697 
Q 1356 2406 1356 1850 
L 1356 331 
L 1856 331 
L 1856 0 
L 263 0 
L 263 331 
L 781 331 
L 781 2994 
L 231 2994 
L 231 3322 
L 1356 3322 
L 1356 2731 
Q 1516 3063 1762 3238 
Q 2009 3413 2322 3413 
Q 2709 3413 2968 3220 
Q 3228 3028 3316 2675 
z
" transform="scale(0.015625)"/>
      </defs>
      <use xlink:href="#DejaVuSerif-54"/>
      <use xlink:href="#DejaVuSerif-69" x="66.699219"/>
      <use xlink:href="#DejaVuSerif-6d" x="98.681641"/>
      <use xlink:href="#DejaVuSerif-65" x="193.505859"/>
     </g>
    </g>
   </g>
   <g id="matplotlib.axis_4">
    <g id="ytick_3">
     <g id="line2d_32">
      <path d="M 82.89 356.231069 
L 835.065 356.231069 
" clip-path="url(#pc937d2e95b)" style="fill: none; stroke: #ffffff; stroke-linecap: round"/>
     </g>
     <g id="text_37">
      <!-- 0 -->
      <g style="fill: #262626" transform="translate(60.665 363.829506) scale(0.2 -0.2)">
       <use xlink:href="#DejaVuSerif-30"/>
      </g>
     </g>
    </g>
    <g id="ytick_4">
     <g id="line2d_33">
      <path d="M 82.89 248.452444 
L 835.065 248.452444 
" clip-path="url(#pc937d2e95b)" style="fill: none; stroke: #ffffff; stroke-linecap: round"/>
     </g>
     <g id="text_38">
      <!-- 1 -->
      <g style="fill: #262626" transform="translate(60.665 256.050881) scale(0.2 -0.2)">
       <use xlink:href="#DejaVuSerif-31"/>
      </g>
     </g>
    </g>
    <g id="text_39">
     <!-- Density -->
     <g style="fill: #262626" transform="translate(50.888125 352.229256) rotate(-90) scale(0.26 -0.26)">
      <use xlink:href="#DejaVuSerif-44"/>
      <use xlink:href="#DejaVuSerif-65" x="80.175781"/>
      <use xlink:href="#DejaVuSerif-6e" x="139.355469"/>
      <use xlink:href="#DejaVuSerif-73" x="203.759766"/>
      <use xlink:href="#DejaVuSerif-69" x="255.078125"/>
      <use xlink:href="#DejaVuSerif-74" x="287.060547"/>
      <use xlink:href="#DejaVuSerif-79" x="327.246094"/>
     </g>
    </g>
   </g>
   <g id="line2d_34">
    <path d="M 82.89 351.919924 
L 85.8987 354.075496 
L 86.19957 354.075496 
L 86.50044 354.291054 
L 87.10218 354.291054 
L 87.70392 354.722168 
L 88.9074 354.722168 
L 91.01349 356.231069 
L 700.87698 356.231069 
L 701.17785 356.015511 
L 701.47872 356.015511 
L 702.08046 355.584397 
L 704.78829 355.584397 
L 705.6909 354.937725 
L 706.29264 354.937725 
L 706.89438 354.506611 
L 707.49612 354.506611 
L 707.79699 354.291054 
L 834.76413 354.291054 
L 834.76413 354.291054 
" clip-path="url(#pc937d2e95b)" style="fill: none; stroke: #440154; stroke-width: 3; stroke-linecap: round"/>
   </g>
   <g id="line2d_35">
    <path d="M 82.89 356.231069 
L 834.76413 356.231069 
L 834.76413 356.231069 
" clip-path="url(#pc937d2e95b)" style="fill: none; stroke: #482173; stroke-width: 3; stroke-linecap: round"/>
   </g>
   <g id="line2d_36">
    <path d="M 82.89 356.231069 
L 834.76413 356.231069 
L 834.76413 356.231069 
" clip-path="url(#pc937d2e95b)" style="fill: none; stroke: #433e85; stroke-width: 3; stroke-linecap: round"/>
   </g>
   <g id="line2d_37">
    <path d="M 82.89 356.231069 
L 271.53549 356.231069 
L 271.83636 356.015511 
L 282.96855 356.015511 
L 283.57029 355.584397 
L 283.87116 355.584397 
L 311.5512 335.75313 
L 311.85207 335.75313 
L 421.97049 256.859178 
L 422.27136 256.859178 
L 433.40355 248.883559 
L 434.00529 248.883559 
L 434.30616 248.667998 
L 438.51834 248.667998 
L 438.81921 248.883559 
L 473.41926 248.883559 
L 473.72013 249.099114 
L 502.60365 249.099114 
L 502.90452 249.314675 
L 511.02801 249.314675 
L 511.32888 249.530229 
L 512.23149 249.530229 
L 512.53236 249.74579 
L 516.44367 249.74579 
L 516.74454 249.961344 
L 517.34628 249.961344 
L 517.64715 250.176899 
L 519.1515 250.176899 
L 519.75324 250.608014 
L 520.95672 250.608014 
L 521.25759 250.823575 
L 522.76194 250.823575 
L 523.06281 251.03913 
L 526.37238 251.03913 
L 526.97412 251.470245 
L 529.38108 251.470245 
L 529.68195 251.6858 
L 530.58456 251.6858 
L 530.88543 251.90136 
L 532.38978 251.90136 
L 532.69065 252.116915 
L 533.89413 252.116915 
L 534.195 252.332476 
L 534.49587 252.332476 
L 588.95334 291.348337 
L 589.25421 291.348337 
L 612.4212 307.946243 
L 612.72207 307.946243 
L 623.85426 315.921862 
L 624.15513 315.921862 
L 637.39341 325.406381 
L 639.4995 325.406381 
L 653.03865 335.106459 
L 653.33952 335.106459 
L 661.46301 340.926504 
L 661.76388 340.926504 
L 662.66649 341.573175 
L 662.96736 341.573175 
L 666.87867 344.37542 
L 667.17954 344.37542 
L 667.78128 344.806535 
L 668.08215 344.806535 
L 669.5865 345.884321 
L 670.18824 345.884321 
L 671.39172 346.74655 
L 671.69259 346.74655 
L 673.19694 347.824336 
L 673.49781 347.824336 
L 676.80738 350.195466 
L 677.40912 350.195466 
L 679.81608 351.919924 
L 680.11695 351.919924 
L 681.01956 352.566595 
L 681.32043 352.566595 
L 682.82478 353.644382 
L 683.12565 353.644382 
L 684.32913 354.506611 
L 684.63 354.506611 
L 684.93087 354.722168 
L 787.82841 354.722168 
L 789.9345 356.231069 
L 834.76413 356.231069 
L 834.76413 356.231069 
" clip-path="url(#pc937d2e95b)" style="fill: none; stroke: #38588c; stroke-width: 3; stroke-linecap: round"/>
   </g>
   <g id="line2d_38">
    <path d="M 82.89 353.213267 
L 94.62393 353.213267 
L 95.22567 353.644382 
L 95.52654 353.644382 
L 95.82741 353.859939 
L 97.33176 353.859939 
L 97.63263 354.075496 
L 98.53524 354.075496 
L 98.83611 354.291054 
L 101.84481 354.291054 
L 102.14568 354.506611 
L 102.44655 354.506611 
L 102.74742 354.722168 
L 103.04829 354.506611 
L 103.34916 354.506611 
L 103.65003 354.722168 
L 103.9509 354.506611 
L 104.25177 354.722168 
L 104.85351 354.722168 
L 105.15438 354.937725 
L 105.45525 354.937725 
L 106.05699 354.506611 
L 106.35786 354.506611 
L 108.46395 352.99771 
L 109.06569 352.99771 
L 109.9683 352.351038 
L 110.26917 352.351038 
L 110.57004 352.135481 
L 112.37526 352.135481 
L 112.67613 351.919924 
L 112.977 351.919924 
L 113.27787 351.704367 
L 113.57874 351.704367 
L 115.38396 350.411023 
L 118.09179 350.411023 
L 118.39266 350.195466 
L 120.49875 350.195466 
L 120.79962 349.979909 
L 121.10049 349.979909 
L 121.70223 349.548794 
L 123.50745 349.548794 
L 124.41006 348.902122 
L 124.71093 348.902122 
L 125.0118 348.686565 
L 125.91441 348.686565 
L 126.81702 348.039894 
L 127.11789 348.039894 
L 128.0205 347.393221 
L 128.32137 347.393221 
L 128.62224 347.177664 
L 128.92311 347.177664 
L 129.22398 346.962107 
L 129.52485 346.962107 
L 129.82572 346.74655 
L 130.12659 346.74655 
L 130.72833 346.315435 
L 131.0292 346.315435 
L 131.63094 345.884321 
L 135.84312 345.884321 
L 137.64834 344.590977 
L 137.94921 344.590977 
L 138.25008 344.37542 
L 138.55095 344.37542 
L 139.15269 343.944306 
L 139.45356 343.944306 
L 139.75443 343.728749 
L 140.35617 343.728749 
L 141.86052 342.650962 
L 142.16139 342.650962 
L 142.46226 342.435404 
L 144.26748 342.435404 
L 146.67444 340.710947 
L 147.87792 340.710947 
L 149.68314 339.417603 
L 150.28488 339.417603 
L 150.58575 339.202045 
L 151.18749 339.202045 
L 153.89532 337.262031 
L 155.70054 337.262031 
L 156.00141 337.046473 
L 156.90402 337.046473 
L 157.20489 336.830916 
L 168.03621 336.830916 
L 170.74404 334.890901 
L 171.04491 334.890901 
L 171.94752 334.24423 
L 172.24839 334.24423 
L 173.75274 333.166443 
L 174.05361 333.166443 
L 174.65535 332.735329 
L 174.95622 332.735329 
L 176.1597 331.8731 
L 176.46057 331.8731 
L 177.06231 331.441985 
L 177.36318 331.441985 
L 178.86753 330.364199 
L 179.1684 330.364199 
L 179.46927 330.148642 
L 179.77014 330.148642 
L 181.57536 328.855297 
L 182.1771 328.855297 
L 184.58406 327.130839 
L 184.88493 327.130839 
L 189.99972 323.466368 
L 190.30059 323.466368 
L 191.2032 322.819695 
L 191.50407 322.819695 
L 193.30929 321.526352 
L 193.61016 321.526352 
L 194.81364 320.664121 
L 195.11451 320.664121 
L 195.71625 320.233009 
L 196.01712 320.233009 
L 196.31799 320.017451 
L 196.91973 320.017451 
L 198.12321 319.155221 
L 198.42408 319.155221 
L 199.62756 318.292993 
L 202.03452 318.292993 
L 202.33539 318.077435 
L 202.63626 318.077435 
L 202.93713 317.861878 
L 203.53887 317.861878 
L 204.14061 317.430762 
L 204.44148 317.430762 
L 204.74235 317.215208 
L 205.04322 317.215208 
L 214.67106 310.317375 
L 214.97193 310.317375 
L 215.87454 309.670702 
L 216.17541 309.670702 
L 217.07802 309.024032 
L 217.37889 309.024032 
L 218.58237 308.161801 
L 218.88324 308.161801 
L 219.78585 307.515131 
L 220.08672 307.515131 
L 223.09542 305.359557 
L 223.39629 305.359557 
L 224.90064 304.281772 
L 225.20151 304.281772 
L 225.50238 304.066215 
L 225.80325 304.066215 
L 229.41369 301.479526 
L 229.71456 301.479526 
L 230.3163 301.04841 
L 230.91804 301.04841 
L 234.22761 298.677285 
L 234.82935 298.677285 
L 238.74066 295.875039 
L 239.04153 295.875039 
L 240.84675 294.581692 
L 241.44849 294.581692 
L 242.3511 293.935023 
L 242.95284 293.935023 
L 243.25371 293.719468 
L 243.85545 293.719468 
L 244.15632 293.503907 
L 244.45719 293.503907 
L 245.66067 292.641683 
L 246.56328 292.641683 
L 247.16502 293.072792 
L 248.66937 291.995007 
L 248.97024 291.995007 
L 249.27111 291.779452 
L 250.17372 291.779452 
L 251.3772 290.917221 
L 251.97894 290.917221 
L 252.27981 290.701667 
L 252.58068 290.701667 
L 253.18242 290.270552 
L 253.48329 290.270552 
L 254.08503 289.839436 
L 254.68677 289.839436 
L 254.98764 290.054991 
L 255.58938 290.054991 
L 255.89025 289.839436 
L 256.19112 289.839436 
L 256.49199 290.054991 
L 256.79286 290.054991 
L 257.09373 290.270552 
L 257.3946 290.270552 
L 258.29721 290.917221 
L 259.50069 290.917221 
L 260.4033 291.563891 
L 260.70417 291.563891 
L 261.00504 291.779452 
L 262.81026 291.779452 
L 263.11113 291.995007 
L 263.412 291.995007 
L 263.71287 292.210568 
L 264.01374 292.210568 
L 265.81896 293.503907 
L 268.52679 293.503907 
L 268.82766 293.719468 
L 270.93375 293.719468 
L 271.23462 293.935023 
L 271.53549 293.935023 
L 272.13723 294.366138 
L 273.94245 294.366138 
L 274.84506 295.012808 
L 275.14593 295.012808 
L 275.4468 295.228369 
L 276.34941 295.228369 
L 277.25202 295.875039 
L 277.55289 295.875039 
L 278.4555 296.521708 
L 278.75637 296.521708 
L 279.05724 296.737269 
L 279.35811 296.737269 
L 279.65898 296.952824 
L 279.95985 296.952824 
L 280.26072 297.168385 
L 280.56159 297.168385 
L 281.16333 297.599494 
L 281.4642 297.599494 
L 282.06594 298.030609 
L 286.27812 298.030609 
L 288.08334 299.323955 
L 288.38421 299.323955 
L 288.68508 299.53951 
L 288.98595 299.53951 
L 289.58769 299.970625 
L 289.88856 299.970625 
L 290.18943 300.186186 
L 290.79117 300.186186 
L 292.29552 301.263971 
L 292.59639 301.263971 
L 292.89726 301.479526 
L 294.70248 301.479526 
L 297.10944 303.203984 
L 298.31292 303.203984 
L 300.11814 304.49733 
L 300.41901 304.49733 
L 301.02075 304.928442 
L 301.62249 304.928442 
L 304.33032 306.868458 
L 306.13554 306.868458 
L 306.43641 307.084016 
L 307.33902 307.084016 
L 307.63989 307.299573 
L 318.47121 307.299573 
L 321.17904 309.239589 
L 321.47991 309.239589 
L 322.38252 309.886259 
L 322.68339 309.886259 
L 324.18774 310.964048 
L 324.48861 310.964048 
L 325.09035 311.39516 
L 325.39122 311.39516 
L 326.5947 312.257391 
L 326.89557 312.257391 
L 327.49731 312.688503 
L 327.79818 312.688503 
L 329.30253 313.766291 
L 329.6034 313.766291 
L 329.90427 313.981849 
L 330.20514 313.981849 
L 332.01036 315.275192 
L 332.6121 315.275192 
L 335.01906 316.99965 
L 335.31993 316.99965 
L 340.43472 320.664121 
L 340.73559 320.664121 
L 341.6382 321.310794 
L 341.93907 321.310794 
L 343.74429 322.604137 
L 344.04516 322.604137 
L 345.24864 323.466368 
L 345.54951 323.466368 
L 346.15125 323.89748 
L 346.45212 323.89748 
L 346.75299 324.113038 
L 347.35473 324.113038 
L 348.55821 324.975268 
L 348.85908 324.975268 
L 350.06256 325.837496 
L 352.46952 325.837496 
L 352.77039 326.053054 
L 353.07126 326.053054 
L 353.37213 326.268611 
L 353.97387 326.268611 
L 354.57561 326.699727 
L 354.87648 326.699727 
L 355.17735 326.915281 
L 355.47822 326.915281 
L 365.10606 333.813114 
L 365.40693 333.813114 
L 366.30954 334.459786 
L 366.61041 334.459786 
L 367.51302 335.106459 
L 367.81389 335.106459 
L 369.01737 335.968688 
L 369.31824 335.968688 
L 370.22085 336.615359 
L 370.52172 336.615359 
L 373.53042 338.770931 
L 373.83129 338.770931 
L 375.33564 339.848718 
L 375.63651 339.848718 
L 375.93738 340.064274 
L 376.23825 340.064274 
L 379.84869 342.650962 
L 380.14956 342.650962 
L 380.7513 343.082076 
L 381.35304 343.082076 
L 384.66261 345.453206 
L 385.26435 345.453206 
L 389.17566 348.25545 
L 389.47653 348.25545 
L 391.28175 349.548794 
L 391.88349 349.548794 
L 392.7861 350.195466 
L 393.38784 350.195466 
L 393.68871 350.411023 
L 394.29045 350.411023 
L 394.59132 350.62658 
L 394.89219 350.62658 
L 396.09567 351.488809 
L 397.60002 351.488809 
L 399.10437 352.566595 
L 399.40524 352.566595 
L 399.70611 352.782153 
L 400.60872 352.782153 
L 401.8122 353.644382 
L 402.41394 353.644382 
L 402.71481 353.859939 
L 403.01568 353.859939 
L 404.8209 355.153283 
L 406.02438 355.153283 
L 406.62612 355.584397 
L 407.52873 355.584397 
L 407.8296 355.799954 
L 408.73221 355.799954 
L 409.33395 356.231069 
L 681.92217 356.231069 
L 683.72739 354.937725 
L 684.02826 354.937725 
L 684.63 354.506611 
L 685.53261 354.506611 
L 687.03696 353.428824 
L 688.24044 353.428824 
L 690.04566 352.135481 
L 690.6474 352.135481 
L 693.05436 350.411023 
L 693.35523 350.411023 
L 698.47002 346.74655 
L 698.77089 346.74655 
L 701.17785 345.022092 
L 701.47872 345.022092 
L 805.88061 270.223728 
L 806.18148 270.223728 
L 807.68583 269.145937 
L 807.9867 269.145937 
L 811.29627 266.774812 
L 812.80062 266.774812 
L 815.80932 264.619235 
L 816.11019 264.619235 
L 818.21628 263.110334 
L 819.41976 263.110334 
L 820.0215 262.679225 
L 820.32237 262.679225 
L 820.62324 262.463665 
L 821.52585 262.463665 
L 821.82672 262.24811 
L 822.12759 262.24811 
L 823.0302 261.601434 
L 823.33107 261.601434 
L 823.93281 261.170318 
L 824.53455 261.170318 
L 824.83542 260.954764 
L 826.33977 260.954764 
L 826.64064 260.73921 
L 827.24238 260.73921 
L 829.34847 259.230309 
L 829.95021 259.230309 
L 830.85282 258.583633 
L 831.15369 258.583633 
L 832.35717 257.721408 
L 832.95891 257.721408 
L 833.25978 257.936963 
L 834.16239 257.936963 
L 834.46326 257.721408 
L 834.76413 257.936963 
L 834.76413 257.936963 
" clip-path="url(#pc937d2e95b)" style="fill: none; stroke: #2d708e; stroke-width: 3; stroke-linecap: round"/>
   </g>
   <g id="line2d_39">
    <path d="M 82.89 356.231069 
L 834.76413 356.231069 
L 834.76413 356.231069 
" clip-path="url(#pc937d2e95b)" style="fill: none; stroke: #25858e; stroke-width: 3; stroke-linecap: round"/>
   </g>
   <g id="line2d_40">
    <path d="M 82.89 356.231069 
L 834.76413 356.231069 
L 834.76413 356.231069 
" clip-path="url(#pc937d2e95b)" style="fill: none; stroke: #1e9b8a; stroke-width: 3; stroke-linecap: round"/>
   </g>
   <g id="line2d_41">
    <path d="M 82.89 349.11768 
L 94.32306 349.11768 
L 96.73002 350.842137 
L 97.03089 350.842137 
L 97.33176 351.057695 
L 97.63263 351.057695 
L 99.73872 352.566595 
L 100.34046 352.566595 
L 100.64133 352.782153 
L 110.57004 352.782153 
L 110.87091 352.99771 
L 111.17178 352.99771 
L 112.67613 354.075496 
L 125.0118 354.075496 
L 125.91441 354.722168 
L 127.41876 354.722168 
L 128.32137 355.36884 
L 128.62224 355.36884 
L 128.92311 355.584397 
L 129.52485 355.584397 
L 130.42746 356.231069 
L 834.76413 356.231069 
L 834.76413 356.231069 
" clip-path="url(#pc937d2e95b)" style="fill: none; stroke: #2ab07f; stroke-width: 3; stroke-linecap: round"/>
   </g>
   <g id="line2d_42">
    <path d="M 82.89 356.231069 
L 672.89607 356.231069 
L 675.00216 354.722168 
L 675.30303 354.722168 
L 675.6039 354.506611 
L 676.20564 354.506611 
L 676.50651 354.291054 
L 676.80738 354.291054 
L 679.21434 352.566595 
L 679.81608 352.566595 
L 681.32043 351.488809 
L 681.6213 351.488809 
L 683.72739 349.979909 
L 684.32913 349.979909 
L 684.93087 349.548794 
L 685.23174 349.548794 
L 687.03696 348.25545 
L 687.6387 348.25545 
L 688.24044 347.824336 
L 690.34653 347.824336 
L 690.6474 347.608779 
L 690.94827 347.608779 
L 691.24914 347.393221 
L 693.6561 347.393221 
L 693.95697 347.177664 
L 696.6648 347.177664 
L 697.26654 346.74655 
L 823.33107 346.74655 
L 825.43716 348.25545 
L 825.73803 348.25545 
L 826.0389 348.471008 
L 826.64064 348.471008 
L 826.94151 348.686565 
L 827.24238 348.686565 
L 829.64934 350.411023 
L 830.25108 350.411023 
L 831.75543 351.488809 
L 832.0563 351.488809 
L 834.16239 352.99771 
L 834.76413 352.99771 
L 834.76413 352.99771 
" clip-path="url(#pc937d2e95b)" style="fill: none; stroke: #52c569; stroke-width: 3; stroke-linecap: round"/>
   </g>
   <g id="line2d_43">
    <path d="M 82.89 253.410261 
L 83.49174 252.979146 
L 106.35786 252.979146 
L 106.65873 252.763591 
L 107.86221 252.763591 
L 108.16308 252.54803 
L 108.76482 252.54803 
L 110.57004 251.254691 
L 117.49005 251.254691 
L 117.79092 251.03913 
L 122.0031 251.03913 
L 122.30397 250.823575 
L 122.60484 250.823575 
L 122.90571 250.608014 
L 123.80832 250.608014 
L 124.10919 250.39246 
L 124.71093 250.39246 
L 125.31267 249.961344 
L 125.61354 249.961344 
L 125.91441 249.74579 
L 126.51615 249.74579 
L 126.81702 249.961344 
L 127.11789 249.961344 
L 127.41876 249.74579 
L 128.0205 250.176899 
L 129.82572 250.176899 
L 130.12659 249.961344 
L 130.42746 249.961344 
L 130.72833 250.176899 
L 131.33007 250.176899 
L 131.63094 250.39246 
L 136.44486 250.39246 
L 136.74573 250.608014 
L 137.0466 250.39246 
L 137.34747 250.608014 
L 140.35617 250.608014 
L 141.25878 251.254691 
L 141.55965 251.254691 
L 141.86052 251.470245 
L 142.16139 251.470245 
L 143.36487 252.332476 
L 143.96661 252.332476 
L 146.67444 254.272492 
L 147.27618 254.272492 
L 147.57705 254.056931 
L 147.87792 254.056931 
L 148.17879 254.272492 
L 149.38227 254.272492 
L 149.98401 254.703607 
L 150.28488 254.703607 
L 150.88662 255.134716 
L 151.78923 255.134716 
L 152.0901 255.350277 
L 166.23099 255.350277 
L 166.53186 255.565831 
L 168.63795 255.565831 
L 168.93882 255.781392 
L 169.84143 255.781392 
L 170.44317 256.212508 
L 171.64665 256.212508 
L 171.94752 256.428062 
L 172.85013 256.428062 
L 173.45187 256.859178 
L 173.75274 256.859178 
L 174.05361 257.074732 
L 177.66405 257.074732 
L 178.56666 257.721408 
L 182.77884 257.721408 
L 184.28319 258.799194 
L 185.48667 258.799194 
L 186.08841 259.230309 
L 187.29189 259.230309 
L 187.59276 259.445863 
L 189.39798 259.445863 
L 189.69885 259.661418 
L 193.61016 259.661418 
L 193.91103 259.876979 
L 194.2119 259.876979 
L 194.51277 260.092533 
L 195.11451 260.092533 
L 195.71625 260.523649 
L 199.32669 260.523649 
L 199.62756 260.73921 
L 202.03452 260.73921 
L 202.33539 260.954764 
L 202.93713 260.954764 
L 204.14061 261.816995 
L 204.44148 261.816995 
L 204.74235 262.032549 
L 205.34409 262.032549 
L 205.64496 262.24811 
L 206.84844 262.24811 
L 207.14931 262.463665 
L 207.45018 262.463665 
L 208.65366 263.325895 
L 208.95453 263.325895 
L 212.86584 266.128136 
L 213.76845 266.128136 
L 214.37019 266.559251 
L 215.87454 266.559251 
L 217.67976 267.852597 
L 217.98063 267.852597 
L 274.54419 308.377359 
L 274.84506 308.377359 
L 276.95115 309.886259 
L 277.25202 309.886259 
L 277.85376 310.317375 
L 278.4555 310.317375 
L 280.86246 312.041833 
L 281.16333 312.041833 
L 281.76507 312.472948 
L 282.06594 312.472948 
L 286.87986 315.921862 
L 287.18073 315.921862 
L 287.4816 316.137419 
L 287.78247 316.137419 
L 290.79117 318.292993 
L 291.69378 318.292993 
L 291.99465 318.508551 
L 292.29552 318.508551 
L 292.59639 318.724108 
L 293.79987 318.724108 
L 294.40161 319.155221 
L 297.41031 319.155221 
L 298.31292 319.801894 
L 298.61379 319.801894 
L 299.81727 320.664121 
L 300.41901 320.664121 
L 300.71988 320.879679 
L 301.32162 320.879679 
L 302.22423 321.526352 
L 302.5251 321.526352 
L 316.66599 331.657542 
L 316.96686 331.657542 
L 319.07295 333.166443 
L 319.37382 333.166443 
L 320.27643 333.813114 
L 320.87817 333.813114 
L 322.08165 334.675343 
L 322.38252 334.675343 
L 323.28513 335.322015 
L 323.88687 335.322015 
L 324.18774 335.537573 
L 324.48861 335.537573 
L 328.09905 338.12426 
L 329.00166 338.12426 
L 333.21384 341.142061 
L 334.71819 341.142061 
L 335.01906 341.357619 
L 335.92167 341.357619 
L 336.52341 340.926504 
L 337.72689 340.926504 
L 338.02776 340.710947 
L 339.83298 340.710947 
L 340.13385 340.49539 
L 342.54081 340.49539 
L 342.84168 340.710947 
L 343.44342 340.710947 
L 343.74429 340.926504 
L 344.04516 340.926504 
L 344.34603 340.710947 
L 344.6469 340.710947 
L 344.94777 340.49539 
L 345.54951 340.49539 
L 346.15125 340.064274 
L 347.6556 340.064274 
L 347.95647 340.279832 
L 349.76169 340.279832 
L 350.06256 340.064274 
L 350.6643 340.064274 
L 350.96517 340.279832 
L 352.46952 340.279832 
L 352.77039 340.064274 
L 353.37213 340.064274 
L 354.57561 339.202045 
L 355.77909 339.202045 
L 356.07996 338.986489 
L 356.6817 338.986489 
L 356.98257 339.202045 
L 357.28344 339.202045 
L 357.58431 338.986489 
L 357.88518 338.986489 
L 359.08866 338.12426 
L 359.38953 338.12426 
L 363.30084 335.322015 
L 364.20345 335.322015 
L 364.80519 334.890901 
L 366.30954 334.890901 
L 368.11476 333.597558 
L 368.41563 333.597558 
L 369.61911 332.735329 
L 370.22085 332.735329 
L 377.14086 327.777512 
L 378.04347 327.777512 
L 378.34434 327.561954 
L 378.64521 327.561954 
L 378.94608 327.346397 
L 379.54782 327.346397 
L 383.45913 324.544153 
L 384.36174 324.544153 
L 384.66261 324.328595 
L 384.96348 324.328595 
L 385.26435 324.113038 
L 385.56522 324.113038 
L 388.57392 321.957467 
L 388.87479 321.957467 
L 390.68001 320.664121 
L 391.58262 320.664121 
L 392.48523 320.017451 
L 392.7861 320.017451 
L 393.08697 319.801894 
L 402.41394 319.801894 
L 404.21916 318.508551 
L 405.12177 318.508551 
L 406.92699 317.215208 
L 407.52873 317.215208 
L 408.73221 316.352977 
L 409.03308 316.352977 
L 409.63482 315.921862 
L 410.23656 315.921862 
L 411.13917 315.275192 
L 411.44004 315.275192 
L 412.34265 314.628519 
L 412.64352 314.628519 
L 413.24526 314.197407 
L 414.44874 314.197407 
L 418.05918 311.610718 
L 418.36005 311.610718 
L 419.26266 310.964048 
L 419.8644 310.964048 
L 420.46614 310.532932 
L 421.36875 310.532932 
L 424.07658 308.592916 
L 424.37745 308.592916 
L 424.97919 308.161801 
L 430.39485 308.161801 
L 431.29746 307.515131 
L 431.59833 307.515131 
L 435.20877 304.928442 
L 435.50964 304.928442 
L 436.11138 304.49733 
L 436.71312 304.49733 
L 439.42095 302.557314 
L 439.72182 302.557314 
L 440.9253 301.695086 
L 442.12878 301.695086 
L 442.42965 301.479526 
L 443.03139 301.479526 
L 444.83661 300.186186 
L 445.13748 300.186186 
L 446.04009 299.53951 
L 446.34096 299.53951 
L 446.64183 299.323955 
L 447.84531 299.323955 
L 448.14618 299.108401 
L 458.9775 299.108401 
L 459.27837 298.89284 
L 459.57924 298.89284 
L 485.45406 280.354917 
L 491.17059 280.354917 
L 491.47146 280.570472 
L 492.97581 280.570472 
L 493.27668 280.354917 
L 493.87842 280.354917 
L 494.17929 280.139363 
L 498.0906 280.139363 
L 498.39147 279.923802 
L 498.69234 279.923802 
L 498.99321 280.139363 
L 501.0993 280.139363 
L 501.40017 279.923802 
L 505.31148 279.923802 
L 505.61235 279.708247 
L 507.1167 279.708247 
L 507.41757 279.492686 
L 520.05411 279.492686 
L 520.65585 279.061571 
L 527.57586 279.061571 
L 528.47847 278.414901 
L 528.77934 278.414901 
L 529.08021 278.199347 
L 529.38108 278.199347 
L 529.98282 277.768231 
L 533.89413 277.768231 
L 534.79674 277.121555 
L 535.09761 277.121555 
L 535.39848 276.906001 
L 535.69935 276.906001 
L 536.00022 276.690446 
L 539.00892 276.690446 
L 539.30979 276.474885 
L 541.11501 276.474885 
L 542.01762 275.828215 
L 542.92023 275.828215 
L 543.2211 275.612655 
L 543.52197 275.612655 
L 552.84894 268.930382 
L 554.65416 268.930382 
L 555.55677 268.283712 
L 557.36199 268.283712 
L 557.96373 267.852597 
L 559.16721 267.852597 
L 559.46808 267.637036 
L 560.06982 267.637036 
L 560.67156 267.205927 
L 561.57417 267.205927 
L 561.87504 266.990366 
L 562.77765 266.990366 
L 563.07852 266.774812 
L 563.68026 266.774812 
L 564.88374 265.912581 
L 568.49418 265.912581 
L 568.79505 265.697027 
L 569.69766 265.697027 
L 570.2994 265.265911 
L 570.90114 265.265911 
L 571.80375 264.619235 
L 574.51158 264.619235 
L 574.81245 264.403681 
L 575.41419 264.403681 
L 580.82985 260.523649 
L 581.73246 260.523649 
L 582.03333 260.308094 
L 585.64377 260.308094 
L 585.94464 260.092533 
L 586.54638 260.092533 
L 587.14812 259.661418 
L 589.85595 259.661418 
L 590.15682 259.445863 
L 591.3603 259.445863 
L 592.56378 258.583633 
L 592.86465 258.583633 
L 593.46639 258.152517 
L 595.27161 258.152517 
L 595.57248 257.936963 
L 596.47509 257.936963 
L 596.77596 257.721408 
L 597.07683 257.721408 
L 598.28031 256.859178 
L 598.58118 256.859178 
L 609.4125 249.099114 
L 609.71337 249.099114 
L 610.01424 248.883559 
L 641.60559 248.883559 
L 641.90646 248.667998 
L 649.12734 248.667998 
L 649.42821 248.452444 
L 656.94996 248.452444 
L 657.25083 248.667998 
L 664.77258 248.667998 
L 665.07345 248.883559 
L 675.6039 248.883559 
L 676.20564 249.314675 
L 681.32043 249.314675 
L 683.12565 250.608014 
L 683.72739 250.608014 
L 684.32913 251.03913 
L 684.93087 251.03913 
L 685.23174 251.254691 
L 686.43522 251.254691 
L 796.85451 330.364199 
L 798.05799 330.364199 
L 798.35886 330.579755 
L 800.46495 330.579755 
L 801.06669 331.010871 
L 801.36756 331.010871 
L 801.9693 331.441985 
L 802.27017 331.441985 
L 802.87191 331.8731 
L 804.37626 331.8731 
L 804.67713 332.088656 
L 805.57974 332.088656 
L 805.88061 332.304214 
L 807.38496 332.304214 
L 807.68583 332.088656 
L 809.79192 332.088656 
L 810.09279 332.304214 
L 815.20758 332.304214 
L 815.50845 332.088656 
L 821.82672 332.088656 
L 822.12759 332.304214 
L 826.0389 332.304214 
L 826.64064 331.8731 
L 831.75543 331.8731 
L 833.56065 330.579755 
L 834.16239 330.579755 
L 834.76413 330.148642 
L 834.76413 330.148642 
" clip-path="url(#pc937d2e95b)" style="fill: none; stroke: #86d549; stroke-width: 3; stroke-linecap: round"/>
   </g>
   <g id="line2d_44">
    <path d="M 82.89 356.231069 
L 834.76413 356.231069 
L 834.76413 356.231069 
" clip-path="url(#pc937d2e95b)" style="fill: none; stroke: #c2df23; stroke-width: 3; stroke-linecap: round"/>
   </g>
   <g id="patch_30">
    <path d="M 82.89 361.62 
L 82.89 243.063513 
" style="fill: none; stroke: #ffffff; stroke-width: 1.25; stroke-linejoin: miter; stroke-linecap: square"/>
   </g>
   <g id="patch_31">
    <path d="M 835.065 361.62 
L 835.065 243.063513 
" style="fill: none; stroke: #ffffff; stroke-width: 1.25; stroke-linejoin: miter; stroke-linecap: square"/>
   </g>
   <g id="patch_32">
    <path d="M 82.89 361.62 
L 835.065 361.62 
" style="fill: none; stroke: #ffffff; stroke-width: 1.25; stroke-linejoin: miter; stroke-linecap: square"/>
   </g>
   <g id="patch_33">
    <path d="M 82.89 243.063513 
L 835.065 243.063513 
" style="fill: none; stroke: #ffffff; stroke-width: 1.25; stroke-linejoin: miter; stroke-linecap: square"/>
   </g>
   <g id="text_40">
    <!-- Output spike density $a=10.0$ / Proposed -->
    <g style="fill: #262626" transform="translate(190.6575 237.063513) scale(0.26 -0.26)">
     <use xlink:href="#DejaVuSerif-4f" transform="translate(0 0.015625)"/>
     <use xlink:href="#DejaVuSerif-75" transform="translate(81.982422 0.015625)"/>
     <use xlink:href="#DejaVuSerif-74" transform="translate(146.386719 0.015625)"/>
     <use xlink:href="#DejaVuSerif-70" transform="translate(186.572266 0.015625)"/>
     <use xlink:href="#DejaVuSerif-75" transform="translate(250.585938 0.015625)"/>
     <use xlink:href="#DejaVuSerif-74" transform="translate(314.990234 0.015625)"/>
     <use xlink:href="#DejaVuSerif-20" transform="translate(355.175781 0.015625)"/>
     <use xlink:href="#DejaVuSerif-73" transform="translate(386.962891 0.015625)"/>
     <use xlink:href="#DejaVuSerif-70" transform="translate(438.28125 0.015625)"/>
     <use xlink:href="#DejaVuSerif-69" transform="translate(502.294922 0.015625)"/>
     <use xlink:href="#DejaVuSerif-6b" transform="translate(534.277344 0.015625)"/>
     <use xlink:href="#DejaVuSerif-65" transform="translate(594.873047 0.015625)"/>
     <use xlink:href="#DejaVuSerif-20" transform="translate(654.052734 0.015625)"/>
     <use xlink:href="#DejaVuSerif-64" transform="translate(685.839844 0.015625)"/>
     <use xlink:href="#DejaVuSerif-65" transform="translate(749.853516 0.015625)"/>
     <use xlink:href="#DejaVuSerif-6e" transform="translate(809.033203 0.015625)"/>
     <use xlink:href="#DejaVuSerif-73" transform="translate(873.4375 0.015625)"/>
     <use xlink:href="#DejaVuSerif-69" transform="translate(924.755859 0.015625)"/>
     <use xlink:href="#DejaVuSerif-74" transform="translate(956.738281 0.015625)"/>
     <use xlink:href="#DejaVuSerif-79" transform="translate(996.923828 0.015625)"/>
     <use xlink:href="#DejaVuSerif-20" transform="translate(1053.417969 0.015625)"/>
     <use xlink:href="#DejaVuSans-Oblique-61" transform="translate(1085.205078 0.015625)"/>
     <use xlink:href="#DejaVuSans-3d" transform="translate(1165.966797 0.015625)"/>
     <use xlink:href="#DejaVuSans-31" transform="translate(1269.238281 0.015625)"/>
     <use xlink:href="#DejaVuSans-30" transform="translate(1332.861328 0.015625)"/>
     <use xlink:href="#DejaVuSans-2e" transform="translate(1396.484375 0.015625)"/>
     <use xlink:href="#DejaVuSans-30" transform="translate(1428.271484 0.015625)"/>
     <use xlink:href="#DejaVuSerif-20" transform="translate(1491.894531 0.015625)"/>
     <use xlink:href="#DejaVuSerif-2f" transform="translate(1523.681641 0.015625)"/>
     <use xlink:href="#DejaVuSerif-20" transform="translate(1557.373047 0.015625)"/>
     <use xlink:href="#DejaVuSerif-50" transform="translate(1589.160156 0.015625)"/>
     <use xlink:href="#DejaVuSerif-72" transform="translate(1656.445312 0.015625)"/>
     <use xlink:href="#DejaVuSerif-6f" transform="translate(1704.248047 0.015625)"/>
     <use xlink:href="#DejaVuSerif-70" transform="translate(1764.453125 0.015625)"/>
     <use xlink:href="#DejaVuSerif-6f" transform="translate(1828.466797 0.015625)"/>
     <use xlink:href="#DejaVuSerif-73" transform="translate(1888.671875 0.015625)"/>
     <use xlink:href="#DejaVuSerif-65" transform="translate(1939.990234 0.015625)"/>
     <use xlink:href="#DejaVuSerif-64" transform="translate(1999.169922 0.015625)"/>
    </g>
   </g>
  </g>
 </g>
 <defs>
  <clipPath id="pb83ebf484b">
   <rect x="82.89" y="86.4" width="752.175" height="118.556487"/>
  </clipPath>
  <clipPath id="pc937d2e95b">
   <rect x="82.89" y="243.063513" width="752.175" height="118.556487"/>
  </clipPath>
 </defs>
</svg>
